<svg width="25" height="24" viewBox="0 0 25 24" fill="none" xmlns="http://www.w3.org/2000/svg">
              <path opacity="0.4" d="M17.1856 0.0404053H21.1036C22.7261 0.0404053 24.0409 1.36629 24.0409 3.00258V6.95362C24.0409 8.58991 22.7261 9.9158 21.1036 9.9158H17.1856C15.563 9.9158 14.2482 8.58991 14.2482 6.95362V3.00258C14.2482 1.36629 15.563 0.0404053 17.1856 0.0404053Z" fill="#FE8208" />
              <path d="M7.75394 13.3074C9.37653 13.3074 10.6913 14.6333 10.6913 16.2696V20.2206C10.6913 21.8558 9.37653 23.1828 7.75394 23.1828H3.83599C2.2134 23.1828 0.898621 21.8558 0.898621 20.2206V16.2696C0.898621 14.6333 2.2134 13.3074 3.83599 13.3074H7.75394ZM21.1036 13.3074C22.7262 13.3074 24.0409 14.6333 24.0409 16.2696V20.2206C24.0409 21.8558 22.7262 23.1828 21.1036 23.1828H17.1856C15.563 23.1828 14.2482 21.8558 14.2482 20.2206V16.2696C14.2482 14.6333 15.563 13.3074 17.1856 13.3074H21.1036ZM7.75394 0.0404968C9.37653 0.0404968 10.6913 1.36638 10.6913 3.00267V6.95371C10.6913 8.59 9.37653 9.91589 7.75394 9.91589H3.83599C2.2134 9.91589 0.898621 8.59 0.898621 6.95371V3.00267C0.898621 1.36638 2.2134 0.0404968 3.83599 0.0404968H7.75394Z" fill="#FE8208" />
            </svg>