<svg id="logo" width="134" height="56" viewBox="0 0 134 56" fill="none" xmlns="http://www.w3.org/2000/svg">
<path id="text" d="M24.3974 19.3833C24.3974 19.8552 24.3354 20.3519 24.2112 20.8735C24.1118 21.3951 23.938 21.8794 23.6896 22.3264C23.4413 22.7735 23.1184 23.146 22.721 23.444C22.3236 23.7421 21.8393 23.8911 21.2681 23.8911C20.3988 23.8911 19.7531 23.7421 19.3309 23.444C18.9087 23.1212 18.6106 22.7238 18.4368 22.2519C18.2629 21.78 18.1636 21.2833 18.1387 20.7617C18.1387 20.2153 18.1263 19.7062 18.1015 19.2343C18.0767 18.7624 17.9897 18.3775 17.8407 18.0794C17.7165 17.7566 17.4309 17.5951 16.9839 17.5951C16.4871 17.5951 16.0525 17.7814 15.68 18.1539C15.3074 18.5017 14.9846 18.9611 14.7114 19.5323C14.4382 20.1036 14.2022 20.7493 14.0035 21.4696C13.8297 22.1898 13.6807 22.9101 13.5565 23.6303C13.4571 24.3257 13.3826 24.9963 13.333 25.642C13.2833 26.2629 13.2584 26.7721 13.2584 27.1695C13.2584 27.691 13.2709 28.3119 13.2957 29.0322C13.3454 29.7524 13.4696 30.4478 13.6682 31.1184C13.8669 31.7641 14.165 32.3229 14.5623 32.7948C14.9597 33.2419 15.531 33.4654 16.276 33.4654C16.7728 33.4654 17.2571 33.4033 17.7289 33.2791C18.2008 33.155 18.6727 33.0184 19.1446 32.8693C19.6165 32.6955 20.0884 32.5465 20.5603 32.4223C21.057 32.2981 21.5537 32.236 22.0504 32.236C22.6217 32.236 23.0935 32.472 23.4661 32.9438C23.8386 33.3909 24.0249 33.9 24.0249 34.4713C24.0249 35.266 23.7765 36.0111 23.2798 36.7065C22.7831 37.3771 22.1622 37.9732 21.4171 38.4947C20.6969 39.0163 19.9021 39.4261 19.0328 39.7241C18.1884 40.0221 17.4185 40.1712 16.7231 40.1712C14.9349 40.1712 13.4199 39.7614 12.1781 38.9418C10.9363 38.147 9.93041 37.1163 9.16049 35.8497C8.39057 34.5582 7.83176 33.1301 7.48405 31.5654C7.16118 29.9759 6.99975 28.3988 6.99975 26.8342C6.99975 25.791 7.09909 24.6486 7.29778 23.4068C7.49647 22.165 7.7945 20.9232 8.19188 19.6814C8.58926 18.4147 9.08598 17.1978 9.68205 16.0305C10.303 14.8632 11.0232 13.8325 11.8428 12.9384C12.6624 12.0443 13.5813 11.324 14.5996 10.7776C15.6427 10.2312 16.7852 9.95803 18.027 9.95803C19.2439 9.95803 20.2622 10.2685 21.0818 10.8894C21.9014 11.4854 22.5596 12.2554 23.0563 13.1991C23.553 14.1181 23.9007 15.1364 24.0994 16.254C24.2981 17.3468 24.3974 18.3899 24.3974 19.3833ZM42.801 28.6969C42.801 29.1191 42.7886 29.7524 42.7637 30.5968C42.7637 31.4164 42.7265 32.2857 42.652 33.2046C42.6023 34.0987 42.5278 34.9556 42.4285 35.7752C42.3291 36.5699 42.2049 37.1536 42.0559 37.5261C41.8572 37.998 41.5965 38.4078 41.2736 38.7555C40.9507 39.1032 40.5161 39.2771 39.9697 39.2771C39.1253 39.2771 38.5168 38.9418 38.1442 38.2712C37.7717 37.6006 37.5233 36.7686 37.3991 35.7752C37.275 34.7817 37.2253 33.7014 37.2501 32.5341C37.275 31.3668 37.2625 30.2864 37.2129 29.2929C37.1632 28.2995 37.0266 27.4675 36.8031 26.7969C36.5796 26.1263 36.1698 25.791 35.5737 25.791C34.7541 25.791 34.1208 25.9276 33.6737 26.2008C33.2515 26.4492 32.9411 26.7845 32.7424 27.2067C32.5685 27.6289 32.4568 28.1132 32.4071 28.6596C32.3823 29.206 32.345 29.7772 32.2953 30.3733C32.2457 30.9445 32.2084 31.7145 32.1836 32.6831C32.1587 33.6517 32.047 34.6079 31.8483 35.5516C31.6496 36.4954 31.3143 37.315 30.8424 38.0104C30.3954 38.681 29.7248 39.0163 28.8307 39.0163C28.2843 39.0163 27.8372 38.8052 27.4895 38.383C27.1667 37.9607 26.9059 37.4143 26.7072 36.7438C26.5085 36.0732 26.3595 35.3281 26.2602 34.5085C26.1856 33.6889 26.136 32.8942 26.1111 32.1243C26.1111 31.3295 26.1111 30.6093 26.1111 29.9635C26.136 29.3178 26.1484 28.8335 26.1484 28.5106C26.1484 28.0139 26.1608 27.1943 26.1856 26.0518C26.2353 24.9094 26.3222 23.6427 26.4464 22.2519C26.5706 20.8362 26.732 19.3833 26.9307 17.8932C27.1294 16.403 27.3902 15.0494 27.7131 13.8325C28.0359 12.5907 28.4209 11.5848 28.8679 10.8149C29.3398 10.045 29.8862 9.67241 30.5071 9.69725C30.9045 9.72209 31.2398 9.89594 31.513 10.2188C31.811 10.5417 32.047 10.9639 32.2208 11.4854C32.4195 11.9822 32.5809 12.5286 32.7051 13.1246C32.8293 13.7207 32.9162 14.3168 32.9659 14.9128C33.0404 15.4841 33.0777 16.018 33.0777 16.5148C33.1025 17.0115 33.1149 17.3964 33.1149 17.6696C33.1149 18.3154 33.1025 18.9611 33.0777 19.6069C33.0528 20.2526 33.0156 20.8983 32.9659 21.5441C33.5371 20.7742 34.2946 20.1408 35.2384 19.6441C36.207 19.1474 37.1756 18.899 38.1442 18.899C39.386 18.899 40.3174 19.2467 40.9383 19.9421C41.584 20.6127 42.0435 21.4571 42.3167 22.4754C42.5899 23.4689 42.7389 24.5368 42.7637 25.6793C42.7886 26.7969 42.801 27.8028 42.801 28.6969ZM61.2791 33.0929C61.2791 33.5399 61.2542 34.1236 61.2046 34.8438C61.1797 35.5641 61.0804 36.2719 60.9065 36.9673C60.7327 37.6379 60.4595 38.2215 60.0869 38.7182C59.7144 39.215 59.1928 39.4633 58.5223 39.4633C57.6033 39.4633 56.8955 39.1653 56.3988 38.5692C55.9021 37.9732 55.6661 37.2281 55.6909 36.334C54.8962 37.0294 53.9897 37.5758 52.9714 37.9732C51.9779 38.3705 50.9597 38.5692 49.9165 38.5692C49.1963 38.5692 48.5133 38.3954 47.8676 38.0477C47.2218 37.7 46.6506 37.2529 46.1539 36.7065C45.6572 36.1601 45.2598 35.5516 44.9617 34.8811C44.6637 34.1857 44.5147 33.5027 44.5147 32.8321C44.5147 31.64 44.8748 30.5968 45.5951 29.7027C46.3401 28.8086 47.2467 28.0511 48.3146 27.4302C49.3826 26.7845 50.5126 26.2754 51.7047 25.9028C52.9217 25.5303 54.0021 25.2819 54.9459 25.1577C54.9459 25.0335 54.9459 24.9218 54.9459 24.8224C54.9707 24.7231 54.9831 24.6113 54.9831 24.4872C54.9831 23.7172 54.772 23.0963 54.3498 22.6244C53.9276 22.1526 53.3315 21.9166 52.5616 21.9166C51.9407 21.9166 51.4067 22.0284 50.9597 22.2519C50.5126 22.4506 50.0904 22.6865 49.693 22.9597C49.2956 23.2081 48.8983 23.444 48.5009 23.6676C48.1035 23.8663 47.6565 23.9656 47.1597 23.9656C46.6133 23.9656 46.1415 23.7917 45.7441 23.444C45.3715 23.0963 45.1853 22.6493 45.1853 22.1029C45.1853 21.2833 45.4212 20.5382 45.8931 19.8676C46.3898 19.1971 46.9983 18.6382 47.7186 18.1912C48.4636 17.7193 49.2584 17.3592 50.1028 17.1108C50.9721 16.8376 51.7668 16.701 52.4871 16.701C53.1577 16.701 53.8282 16.788 54.4988 16.9618C55.1694 17.1108 55.8027 17.3592 56.3988 17.7069C56.9948 18.0298 57.5288 18.4396 58.0007 18.9363C58.4974 19.4082 58.8948 19.967 59.1928 20.6127C59.6399 21.5317 60 22.5127 60.2732 23.5558C60.5464 24.5741 60.7575 25.6296 60.9065 26.7224C61.0555 27.7904 61.1549 28.8707 61.2046 29.9635C61.2542 31.0315 61.2791 32.0746 61.2791 33.0929ZM55.3184 31.9007L55.2066 29.3674C55.157 29.3674 55.1073 29.3674 55.0576 29.3674C55.008 29.3426 54.9583 29.3302 54.9086 29.3302C54.5857 29.3302 54.1759 29.4171 53.6792 29.591C53.2073 29.74 52.7479 29.9635 52.3008 30.2615C51.8538 30.5347 51.4688 30.8452 51.1459 31.1929C50.8479 31.5406 50.6989 31.9007 50.6989 32.2733C50.6989 32.621 50.8231 32.8569 51.0714 32.9811C51.3198 33.1053 51.6054 33.1674 51.9283 33.1674C52.4747 33.1674 53.0583 33.0308 53.6792 32.7576C54.3001 32.4595 54.8465 32.1739 55.3184 31.9007ZM72.1945 39.6869C70.4312 39.6869 69.0528 39.4509 68.0593 38.979C67.0907 38.532 66.3581 37.8862 65.8613 37.0418C65.3894 36.1974 65.1038 35.1791 65.0045 33.987C64.9051 32.7948 64.8555 31.4661 64.8555 30.0008C64.8555 28.8335 64.8927 27.6662 64.9672 26.4989C65.0417 25.3067 65.1535 24.0401 65.3025 22.699C64.9548 22.699 64.6816 22.7114 64.4829 22.7362C64.2842 22.7362 64.1228 22.7362 63.9986 22.7362C63.2039 22.7362 62.5209 22.5624 61.9496 22.2146C61.3536 21.8669 61.0555 21.333 61.0555 20.6127C61.0555 20.1657 61.2294 19.7683 61.5771 19.4206C61.9 19.0729 62.3222 18.7748 62.8437 18.5265C63.3653 18.2781 63.9241 18.0794 64.5202 17.9304C65.1411 17.7814 65.7247 17.6821 66.2711 17.6324C66.2711 16.937 66.3208 16.1671 66.4201 15.3226C66.5195 14.4782 66.6933 13.6959 66.9417 12.9756C67.2149 12.2305 67.575 11.6096 68.0221 11.1129C68.4691 10.6162 69.0403 10.3678 69.7358 10.3678C70.1331 10.3678 70.4808 10.492 70.7789 10.7404C71.1017 10.9639 71.3625 11.2619 71.5612 11.6345C71.7599 11.9822 71.9089 12.3795 72.0083 12.8266C72.1076 13.2736 72.1573 13.7083 72.1573 14.1305C72.1573 14.6272 72.12 15.1364 72.0455 15.6579C71.971 16.1795 71.8344 16.8252 71.6357 17.5951C72.0579 17.5455 72.3436 17.5206 72.4926 17.5206C72.6416 17.4958 72.7782 17.4834 72.9024 17.4834C73.3246 17.4834 73.7592 17.5206 74.2063 17.5951C74.6781 17.6696 75.1004 17.7938 75.4729 17.9677C75.8703 18.1415 76.1931 18.3775 76.4415 18.6755C76.6899 18.9487 76.8141 19.284 76.8141 19.6814C76.8141 20.1284 76.6278 20.5258 76.2552 20.8735C75.9075 21.2212 75.4605 21.5192 74.9141 21.7676C74.3677 22.016 73.784 22.2146 73.1631 22.3637C72.5422 22.4878 71.9586 22.5748 71.4122 22.6244C71.2632 23.6427 71.1514 24.5865 71.0769 25.4558C71.0272 26.3002 70.9651 27.157 70.8906 28.0263C70.841 28.4485 70.7913 28.8831 70.7416 29.3302C70.7168 29.7524 70.7044 30.187 70.7044 30.6341C70.7044 30.957 70.7168 31.3419 70.7416 31.789C70.7665 32.2112 70.8534 32.621 71.0024 33.0184C71.1514 33.4157 71.3874 33.7634 71.7102 34.0615C72.0331 34.3347 72.4802 34.4713 73.0514 34.4713C73.3991 34.4713 73.7592 34.4464 74.1318 34.3968C74.5043 34.3223 74.8768 34.285 75.2494 34.285C75.8951 34.285 76.3546 34.5085 76.6278 34.9556C76.9258 35.4026 77.0748 35.9739 77.0748 36.6693C77.0748 37.1908 76.9134 37.6503 76.5905 38.0477C76.2925 38.4202 75.9075 38.7182 75.4356 38.9418C74.9638 39.1901 74.4298 39.3764 73.8337 39.5006C73.2625 39.6248 72.7161 39.6869 72.1945 39.6869ZM94.0627 32.4968C94.0627 32.9687 93.9386 33.4282 93.6902 33.8752C93.4418 34.2974 92.8582 34.7941 91.9392 35.3654C91.0203 35.9366 90.002 36.483 88.8844 37.0046C87.7668 37.5013 86.6864 37.9359 85.6433 38.3084C84.6002 38.6562 83.8303 38.83 83.3335 38.83C82.9858 38.83 82.576 38.7431 82.1041 38.5692C81.6323 38.4202 81.1604 38.2215 80.6885 37.9732C80.2166 37.7248 79.782 37.4392 79.3846 37.1163C79.0121 36.7934 78.7389 36.483 78.565 36.185C78.4657 36.0111 78.3663 35.6634 78.267 35.1418C78.1925 34.6203 78.118 34.0118 78.0434 33.3164C77.9938 32.621 77.9441 31.8883 77.8944 31.1184C77.8448 30.3236 77.7951 29.5786 77.7454 28.8831C77.7206 28.1629 77.6957 27.5296 77.6709 26.9832C77.6709 26.4368 77.6709 26.0394 77.6709 25.791C77.6709 24.8721 77.6957 23.8166 77.7454 22.6244C77.8199 21.4323 77.9441 20.2402 78.118 19.048C78.2918 17.8311 78.5402 16.6762 78.863 15.5834C79.2107 14.4658 79.6702 13.522 80.2414 12.7521C80.4153 12.5286 80.763 12.2926 81.2846 12.0443C81.8061 11.7959 82.4146 11.56 83.11 11.3364C83.8303 11.1129 84.6002 10.9018 85.4198 10.7031C86.2394 10.5044 87.0217 10.343 87.7668 10.2188C88.5367 10.0698 89.2321 9.95803 89.853 9.88352C90.4739 9.78418 90.9458 9.7345 91.2687 9.7345C91.6412 9.7345 91.9889 9.82143 92.3118 9.99528C92.6595 10.1443 92.9451 10.3554 93.1686 10.6286C93.417 10.9018 93.6033 11.2123 93.7274 11.56C93.8765 11.8828 93.951 12.2305 93.951 12.6031C93.951 12.9259 93.9013 13.1991 93.802 13.4227C93.7274 13.6462 93.6033 13.8946 93.4294 14.1677C93.1811 14.4906 92.6595 14.8756 91.8647 15.3226C91.07 15.7697 90.2007 16.2167 89.2569 16.6638C88.338 17.086 87.4439 17.471 86.5746 17.8187C85.7302 18.1664 85.1342 18.4147 84.7864 18.5637C84.6871 19.135 84.5753 19.7186 84.4512 20.3147C84.3518 20.8859 84.2773 21.4696 84.2276 22.0656C84.9976 21.6683 85.8668 21.2957 86.8354 20.948C87.804 20.6003 88.723 20.4264 89.5922 20.4264C91.3556 20.4264 92.2373 21.2957 92.2373 23.0342C92.2373 23.4565 92.1504 23.829 91.9765 24.1519C91.8275 24.4747 91.6164 24.7604 91.3432 25.0087C91.0948 25.2571 90.7968 25.4806 90.4491 25.6793C90.1262 25.8531 89.8033 26.027 89.4805 26.2008C88.6857 26.6231 87.8537 26.9956 86.9844 27.3185C86.1152 27.6165 85.2459 27.9145 84.3767 28.2126C84.327 28.4113 84.2773 28.6348 84.2276 28.8831C84.178 29.1067 84.1531 29.3302 84.1531 29.5537C84.1531 29.9014 84.178 30.2491 84.2276 30.5968C84.2773 30.9445 84.327 31.2922 84.3767 31.64C84.6747 31.5406 85.1466 31.3792 85.7923 31.1556C86.4629 30.9321 87.1583 30.7086 87.8785 30.4851C88.5988 30.2615 89.2942 30.0753 89.9648 29.9263C90.6354 29.7524 91.1321 29.6655 91.4549 29.6655C91.8275 29.6655 92.1752 29.7524 92.4981 29.9263C92.8209 30.0753 93.0941 30.2864 93.3177 30.5596C93.5412 30.8079 93.715 31.106 93.8392 31.4537C93.9882 31.8014 94.0627 32.1491 94.0627 32.4968ZM111.572 33.0929C111.572 33.5399 111.547 34.1236 111.498 34.8438C111.473 35.5641 111.374 36.2719 111.2 36.9673C111.026 37.6379 110.753 38.2215 110.38 38.7182C110.008 39.215 109.486 39.4633 108.815 39.4633C107.896 39.4633 107.189 39.1653 106.692 38.5692C106.195 37.9732 105.959 37.2281 105.984 36.334C105.189 37.0294 104.283 37.5758 103.265 37.9732C102.271 38.3705 101.253 38.5692 100.21 38.5692C99.4894 38.5692 98.8064 38.3954 98.1607 38.0477C97.515 37.7 96.9437 37.2529 96.447 36.7065C95.9503 36.1601 95.5529 35.5516 95.2549 34.8811C94.9568 34.1857 94.8078 33.5027 94.8078 32.8321C94.8078 31.64 95.1679 30.5968 95.8882 29.7027C96.6333 28.8086 97.5398 28.0511 98.6077 27.4302C99.6757 26.7845 100.806 26.2754 101.998 25.9028C103.215 25.5303 104.295 25.2819 105.239 25.1577C105.239 25.0335 105.239 24.9218 105.239 24.8224C105.264 24.7231 105.276 24.6113 105.276 24.4872C105.276 23.7172 105.065 23.0963 104.643 22.6244C104.221 22.1526 103.625 21.9166 102.855 21.9166C102.234 21.9166 101.7 22.0284 101.253 22.2519C100.806 22.4506 100.384 22.6865 99.9861 22.9597C99.5888 23.2081 99.1914 23.444 98.794 23.6676C98.3966 23.8663 97.9496 23.9656 97.4529 23.9656C96.9065 23.9656 96.4346 23.7917 96.0372 23.444C95.6647 23.0963 95.4784 22.6493 95.4784 22.1029C95.4784 21.2833 95.7143 20.5382 96.1862 19.8676C96.6829 19.1971 97.2914 18.6382 98.0117 18.1912C98.7568 17.7193 99.5515 17.3592 100.396 17.1108C101.265 16.8376 102.06 16.701 102.78 16.701C103.451 16.701 104.121 16.788 104.792 16.9618C105.463 17.1108 106.096 17.3592 106.692 17.7069C107.288 18.0298 107.822 18.4396 108.294 18.9363C108.791 19.4082 109.188 19.967 109.486 20.6127C109.933 21.5317 110.293 22.5127 110.566 23.5558C110.84 24.5741 111.051 25.6296 111.2 26.7224C111.349 27.7904 111.448 28.8707 111.498 29.9635C111.547 31.0315 111.572 32.0746 111.572 33.0929ZM105.612 31.9007L105.5 29.3674C105.45 29.3674 105.4 29.3674 105.351 29.3674C105.301 29.3426 105.251 29.3302 105.202 29.3302C104.879 29.3302 104.469 29.4171 103.972 29.591C103.5 29.74 103.041 29.9635 102.594 30.2615C102.147 30.5347 101.762 30.8452 101.439 31.1929C101.141 31.5406 100.992 31.9007 100.992 32.2733C100.992 32.621 101.116 32.8569 101.365 32.9811C101.613 33.1053 101.899 33.1674 102.221 33.1674C102.768 33.1674 103.351 33.0308 103.972 32.7576C104.593 32.4595 105.14 32.1739 105.612 31.9007ZM122.488 39.6869C120.724 39.6869 119.346 39.4509 118.352 38.979C117.384 38.532 116.651 37.8862 116.154 37.0418C115.683 36.1974 115.397 35.1791 115.298 33.987C115.198 32.7948 115.149 31.4661 115.149 30.0008C115.149 28.8335 115.186 27.6662 115.26 26.4989C115.335 25.3067 115.447 24.0401 115.596 22.699C115.248 22.699 114.975 22.7114 114.776 22.7362C114.577 22.7362 114.416 22.7362 114.292 22.7362C113.497 22.7362 112.814 22.5624 112.243 22.2146C111.647 21.8669 111.349 21.333 111.349 20.6127C111.349 20.1657 111.523 19.7683 111.87 19.4206C112.193 19.0729 112.615 18.7748 113.137 18.5265C113.658 18.2781 114.217 18.0794 114.813 17.9304C115.434 17.7814 116.018 17.6821 116.564 17.6324C116.564 16.937 116.614 16.1671 116.713 15.3226C116.813 14.4782 116.986 13.6959 117.235 12.9756C117.508 12.2305 117.868 11.6096 118.315 11.1129C118.762 10.6162 119.333 10.3678 120.029 10.3678C120.426 10.3678 120.774 10.492 121.072 10.7404C121.395 10.9639 121.656 11.2619 121.854 11.6345C122.053 11.9822 122.202 12.3795 122.301 12.8266C122.401 13.2736 122.45 13.7083 122.45 14.1305C122.45 14.6272 122.413 15.1364 122.339 15.6579C122.264 16.1795 122.128 16.8252 121.929 17.5951C122.351 17.5455 122.637 17.5206 122.786 17.5206C122.935 17.4958 123.071 17.4834 123.195 17.4834C123.618 17.4834 124.052 17.5206 124.499 17.5951C124.971 17.6696 125.393 17.7938 125.766 17.9677C126.163 18.1415 126.486 18.3775 126.735 18.6755C126.983 18.9487 127.107 19.284 127.107 19.6814C127.107 20.1284 126.921 20.5258 126.548 20.8735C126.201 21.2212 125.754 21.5192 125.207 21.7676C124.661 22.016 124.077 22.2146 123.456 22.3637C122.835 22.4878 122.252 22.5748 121.705 22.6244C121.556 23.6427 121.445 24.5865 121.37 25.4558C121.32 26.3002 121.258 27.157 121.184 28.0263C121.134 28.4485 121.084 28.8831 121.035 29.3302C121.01 29.7524 120.997 30.187 120.997 30.6341C120.997 30.957 121.01 31.3419 121.035 31.789C121.06 32.2112 121.147 32.621 121.296 33.0184C121.445 33.4157 121.68 33.7634 122.003 34.0615C122.326 34.3347 122.773 34.4713 123.345 34.4713C123.692 34.4713 124.052 34.4464 124.425 34.3968C124.797 34.3223 125.17 34.285 125.543 34.285C126.188 34.285 126.648 34.5085 126.921 34.9556C127.219 35.4026 127.368 35.9739 127.368 36.6693C127.368 37.1908 127.207 37.6503 126.884 38.0477C126.586 38.4202 126.201 38.7182 125.729 38.9418C125.257 39.1901 124.723 39.3764 124.127 39.5006C123.556 39.6248 123.009 39.6869 122.488 39.6869Z" fill="none"/>
<path d="M123.198 50.3455C120.289 50.1764 117.379 50.0521 114.469 49.9079C113.51 49.8581 112.545 49.8581 111.585 49.8332C109.501 49.7785 107.417 49.7288 105.333 49.6741C104.174 49.6442 103.01 49.6094 101.851 49.5846C101.513 49.5746 101.175 49.5746 100.837 49.5746C100.081 49.5746 99.3246 49.5846 98.5686 49.5895C95.1318 49.5945 91.69 49.5995 88.2532 49.5995C87.4326 49.5995 86.6169 49.6194 85.7962 49.6293C83.767 49.6542 81.7427 49.684 79.7184 49.7089C77.4305 49.7387 75.1476 49.7487 72.8597 49.8084C69.1593 49.8979 65.4638 49.9924 61.7634 50.0819C59.6198 50.1366 57.4811 50.1665 55.3374 50.251C51.647 50.4002 47.9615 50.5445 44.271 50.6887C42.2567 50.7683 40.2423 50.833 38.228 50.9474C34.4132 51.1612 30.5984 51.3701 26.7836 51.584C24.7444 51.6984 22.7052 51.7829 20.6709 51.957C16.871 52.2803 13.0761 52.6036 9.27622 52.9269C8.45557 52.9965 7.63491 53.0661 6.81425 53.1358C5.17791 53.275 3.54158 53.4939 1.91021 53.6779C1.80576 53.6928 1.70131 53.7077 1.60184 53.7227C1.40787 53.7774 1.23379 53.8768 1.08955 54.0211C0.875685 54.235 0.751343 54.5284 0.751343 54.8368C0.751343 55.1402 0.875685 55.4386 1.08955 55.6574C1.28353 55.8514 1.62174 56.0304 1.91021 55.9956C3.88476 55.7718 5.85433 55.5381 7.82888 55.3689C9.66417 55.2148 11.4945 55.0556 13.3298 54.9014C15.3292 54.7323 17.3286 54.5632 19.328 54.3941C20.1338 54.3245 20.9395 54.235 21.7502 54.1902C24.8687 54.0161 27.9872 53.847 31.1057 53.6779C33.0504 53.5685 34.9951 53.464 36.9398 53.3546C37.7455 53.3098 38.5463 53.2551 39.352 53.2203C42.4407 53.096 45.5343 52.9816 48.623 52.8672C50.4981 52.7976 52.3682 52.723 54.2432 52.6533C54.8749 52.6285 55.5016 52.5986 56.1332 52.5837C59.4706 52.5041 62.8079 52.4295 66.1452 52.3549C68.0104 52.3101 69.8705 52.2703 71.7357 52.2256C72.3972 52.2107 73.0636 52.1858 73.7251 52.1808C77.1669 52.146 80.6087 52.1112 84.0505 52.0764C86.1991 52.0515 88.3428 52.0316 90.4914 52.0366C94.147 52.0465 97.8027 52.0515 101.453 52.0615C102.175 52.0615 102.896 52.0913 103.617 52.1162C105.636 52.1758 107.651 52.2355 109.67 52.2952C111.182 52.34 112.694 52.3847 114.211 52.4295C115.285 52.4593 116.355 52.5389 117.429 52.5986C120.587 52.7677 123.745 52.9468 126.899 53.1407C127.699 53.1905 128.5 53.2502 129.301 53.3098C130.161 53.3695 131.022 53.4342 131.877 53.5287C132.012 53.5486 132.141 53.5735 132.275 53.6033C132.613 53.6729 132.937 53.653 133.24 53.479C133.519 53.3148 133.728 53.0413 133.817 52.7279C133.996 52.0714 133.598 51.3701 132.942 51.1861C132.365 51.0269 131.768 50.9623 131.176 50.9026C130.768 50.8628 130.365 50.818 129.958 50.7782C129.177 50.6987 128.391 50.6589 127.61 50.5992C126.138 50.4947 124.666 50.4301 123.198 50.3455Z" fill="#FE8208"/>
</svg>
