<svg width="30" height="26" viewBox="0 0 30 26" fill="none" xmlns="http://www.w3.org/2000/svg">
<g opacity="0.8">
<path d="M29.1666 18.5822C29.1666 22.5347 25.9933 25.7363 22.0408 25.7505H22.0266H7.98742C4.04909 25.7505 0.833252 22.563 0.833252 18.6105V18.5963C0.833252 18.5963 0.841752 12.3262 0.853085 9.17266C0.854502 8.5805 1.5345 8.249 1.99775 8.61733C5.36375 11.2877 11.3832 16.1568 11.4583 16.2206C12.4641 17.0267 13.7391 17.4814 15.0424 17.4814C16.3458 17.4814 17.6208 17.0267 18.6266 16.205C18.7017 16.1554 24.5865 11.4322 28.0035 8.71791C28.4682 8.34816 29.151 8.67966 29.1524 9.27041C29.1666 12.3998 29.1666 18.5822 29.1666 18.5822Z" fill="#FD972F" fill-opacity="0.51"/>
<path d="M28.4244 4.0378C27.1976 1.7258 24.7836 0.249634 22.1259 0.249634H7.98757C5.3299 0.249634 2.9159 1.7258 1.68907 4.0378C1.41424 4.55488 1.54457 5.19947 2.00215 5.56497L12.5209 13.9786C13.2576 14.5736 14.1501 14.8696 15.0426 14.8696C15.0482 14.8696 15.0525 14.8696 15.0567 14.8696C15.061 14.8696 15.0667 14.8696 15.0709 14.8696C15.9634 14.8696 16.8559 14.5736 17.5926 13.9786L28.1113 5.56497C28.5689 5.19947 28.6992 4.55488 28.4244 4.0378Z" fill="#FE8208"/>
</g>
</svg>
