<svg width="26" height="30" viewBox="0 0 26 30" fill="none" xmlns="http://www.w3.org/2000/svg">
<g opacity="0.8">
<path d="M24.0069 14.4976C22.972 13.2891 22.5017 12.2419 22.5017 10.4627V9.85773C22.5017 7.53922 21.9681 6.04538 20.8079 4.55155C19.0198 2.23161 16.0096 0.833374 13.0627 0.833374H12.9374C10.0525 0.833374 7.13655 2.16741 5.31745 4.39318C4.09392 5.91697 3.49835 7.47501 3.49835 9.85773V10.4627C3.49835 12.2419 3.05907 13.2891 1.99323 14.4976C1.20899 15.3879 0.958374 16.5322 0.958374 17.7706C0.958374 19.0105 1.36528 20.1847 2.1819 21.1392C3.24773 22.2835 4.75285 23.014 6.29036 23.141C8.51636 23.395 10.7424 23.4906 13.0007 23.4906C15.2577 23.4906 17.4837 23.3308 19.7111 23.141C21.2472 23.014 22.7523 22.2835 23.8182 21.1392C24.6334 20.1847 25.0417 19.0105 25.0417 17.7706C25.0417 16.5322 24.7911 15.3879 24.0069 14.4976Z" fill="#FE8208"/>
<path d="M15.8457 25.2402C15.1375 25.089 10.822 25.089 10.1138 25.2402C9.5084 25.3801 8.8537 25.7054 8.8537 26.4187C8.8889 27.0993 9.28735 27.7 9.83928 28.0809L9.83787 28.0824C10.5517 28.6388 11.3895 28.9926 12.2666 29.1196C12.7341 29.1838 13.21 29.181 13.6943 29.1196C14.5701 28.9926 15.4078 28.6388 16.1216 28.0824L16.1202 28.0809C16.6722 27.7 17.0706 27.0993 17.1058 26.4187C17.1058 25.7054 16.4511 25.3801 15.8457 25.2402Z" fill="#FD972F" fill-opacity="0.51"/>
</g>
</svg>
