<svg width="85" height="84" viewBox="0 0 85 84" fill="none" xmlns="http://www.w3.org/2000/svg">
<mask id="mask0_42_273" style="mask-type:alpha" maskUnits="userSpaceOnUse" x="0" y="0" width="85" height="84">
<rect x="0.380981" width="84" height="84" rx="10" fill="#C4C4C4"/>
</mask>
<g mask="url(#mask0_42_273)">
<path d="M43.6772 47.7004C55.6167 46.2705 85.0384 57.4202 68.7057 65.9073C83.3714 56.3724 52.5717 47.0533 43.6772 47.7004Z" fill="#D40000"/>
<path d="M34.219 25.566C34.7296 26.1743 34.4479 25.9828 35.0549 26.0007C35.2961 26.3683 35.4171 26.8037 36.0164 26.97C36.145 27.3839 36.435 27.0521 36.6337 27.0909L36.9194 27.1766C37.295 26.6606 37.5924 27.0242 37.948 26.9439C39.0254 26.7267 39.3226 26.0977 39.9171 25.3716L40.2617 24.4893L40.4741 24.3877L40.8246 24.0386C40.8688 25.4796 40.01 26.6731 39.1059 27.6716L37.1956 28.2765L36.7287 28.3909L35.386 27.7667C34.3167 27.0679 34.3179 26.5355 34.219 25.566Z" fill="#970000"/>
<path d="M34.2196 25.5429L34.0632 26.4177L34.2168 26.7499L35.5498 28.3883C36.2071 28.5114 36.9632 29.0682 37.6767 28.5478C39.3503 28.6387 39.8713 27.4966 40.6946 26.0176C41.0094 25.4311 41.3793 25.0782 41.2477 24.4032L40.857 24.0321C40.7293 24.3927 40.5986 24.7791 40.4488 25.1603C40.3093 25.1426 40.3735 25.1676 40.1362 25.0771L40.1115 25.078L39.8884 24.9865C39.8592 25.0613 39.8018 25.1294 39.7995 25.2147C39.963 25.3248 40.1439 25.4157 40.2853 25.5557C39.7853 26.6878 39.0565 27.6634 37.6405 27.5834L37.5707 26.9584L37.1942 26.9729C37.082 27.8065 37.4868 27.3928 37.0832 27.7975C35.7081 27.8509 34.5511 27.1206 34.2196 25.5429Z" fill="#C7140D"/>
<path d="M34.3429 26.0996C34.8365 26.7521 35.3501 27.47 35.7525 27.607L36.7996 27.8788L36.8728 27.876L37.1831 27.6888L37.3095 27.8089L36.7917 27.9911L36.2304 27.9878L35.6593 27.71C35.1416 27.4412 34.5017 26.576 34.3429 26.0996Z" fill="#E85332"/>
<path d="M37.6905 27.5699C37.8918 27.6298 37.9823 27.5925 38.1528 27.5271L38.7311 27.33L39.5014 26.7129C39.7816 26.5079 39.9678 25.9891 40.1723 25.7122C40.346 25.3287 39.4198 25.4406 39.5743 25.0481L39.9006 24.9731L39.8718 25.1866C40.2096 25.5218 40.5019 25.2338 40.3731 25.5423L40.2054 25.961L40.1848 26.0618L39.7673 26.6527L39.6968 26.7306L39.1629 27.1385L38.9022 27.3483L38.471 27.5647C38.0262 27.7489 38.0206 27.7164 37.6905 27.5699Z" fill="#E85332"/>
<path d="M37.1589 27.0406L37.4646 27.0664L37.5846 27.0119L37.4833 26.5787L37.3797 26.4078L37.2262 26.551L37.1734 26.7655L37.1589 27.0406Z" fill="#E85332"/>
<path d="M37.4174 26.4435C37.4916 26.5362 37.5925 26.6011 37.6822 26.6706L37.8179 27.0404L37.8298 27.3651L37.7225 27.4317L37.5791 27.175L37.5906 27.1623C37.5939 27.0743 37.5255 26.7555 37.4174 26.4435Z" fill="#820202"/>
<path d="M37.6919 27.9326C38.323 27.9455 38.789 27.6574 39.2801 27.3215L40.0215 26.5808L40.6213 25.6332C40.2518 26.4016 40.0381 26.7256 39.6233 27.3585L38.4558 28.1282L37.448 28.2545C36.9831 28.2468 36.7225 28.8432 36.0297 28.1593L36.0178 28.1724C36.6246 28.434 37.1216 28.0614 37.6919 27.9326Z" fill="#E83200"/>
<path d="M34.9369 26.6638C34.9337 26.5869 35.0349 26.5748 35.0669 26.5464C35.1711 26.6131 35.2753 26.6797 35.3791 26.7468C35.5678 26.9103 35.7573 27.0737 35.946 27.2372C36.1468 27.2752 36.3473 27.3136 36.5481 27.3517C36.5759 27.3379 36.6041 27.3246 36.632 27.3109C36.4188 27.373 36.2054 27.4355 35.9922 27.4977C35.9762 27.5069 35.9606 27.5157 35.9442 27.5245C35.8023 27.4299 35.6608 27.3356 35.5189 27.241C35.1514 27.1443 35.0596 26.9581 34.9369 26.6638Z" fill="#AD0000"/>
<path d="M38.8082 26.7772C39.1637 26.5068 39.4637 26.1607 39.7361 25.8042C39.7811 25.6942 39.8254 25.5843 39.8704 25.4743C39.9286 25.5051 39.9864 25.5364 40.0445 25.5673C39.9463 25.7708 39.8477 25.9748 39.7495 26.1784C39.7498 26.1865 39.7501 26.1947 39.7504 26.2036C38.9825 26.8761 39.1569 26.7857 38.5495 27.0621C39.1439 26.5804 38.4277 27.1974 38.8082 26.7772Z" fill="#AD0000"/>
<path d="M49.2165 27.9544C48.5095 27.6093 48.8425 27.6684 48.2804 27.9027C47.9147 27.6664 47.632 27.3187 47.0184 27.4142C46.738 27.0889 46.6032 27.5123 46.4061 27.559L46.1109 27.5989C45.971 28.2263 45.5555 28.0169 45.2619 28.2375C44.3621 28.8821 44.3384 29.5805 44.0811 30.4907L44.1141 31.4404L43.9594 31.6211L43.7766 32.0854C43.1675 30.7856 43.4821 29.3384 43.9152 28.051L45.4238 26.707L45.806 26.4086L47.2804 26.4238C48.5343 26.6216 48.7434 27.109 49.2165 27.9544Z" fill="#970000"/>
<path d="M49.2249 27.9762L49.0228 27.1114L48.7512 26.871L46.8854 25.9241C46.2356 26.0836 45.3243 25.8872 44.877 26.6586C43.3103 27.2681 43.2844 28.5285 43.1149 30.2221C43.0584 30.8889 42.8593 31.3647 43.246 31.9277L43.7498 32.1054C43.7242 31.7232 43.6914 31.3152 43.6781 30.9045C43.8127 30.8625 43.744 30.8666 43.9968 30.8512L44.019 30.8402L44.2592 30.8315C44.2564 30.751 44.2819 30.6655 44.2507 30.5855C44.0577 30.5524 43.8563 30.5442 43.6717 30.4746C43.6824 29.2322 43.964 28.0381 45.2908 27.5253L45.6013 28.068L45.94 27.8989C45.7136 27.09 45.5066 27.6359 45.7163 27.0982C46.9527 26.4812 48.2993 26.6698 49.2249 27.9762Z" fill="#C7140D"/>
<path d="M48.8927 27.5176C48.1836 27.1251 47.4306 26.6809 47.0085 26.7222L45.9435 26.907L45.8776 26.9399L45.6672 27.2393L45.5041 27.1818L45.9059 26.8008L46.4206 26.5715L47.0526 26.5893C47.6325 26.6215 48.5594 27.1475 48.8927 27.5176Z" fill="#E85332"/>
<path d="M45.2497 27.5587C45.042 27.5871 44.9739 27.6588 44.8437 27.7891L44.3925 28.2089L43.9315 29.0922C43.7561 29.3956 43.7905 29.9472 43.7127 30.2851C43.7051 30.7078 44.5086 30.2222 44.5217 30.645L44.2528 30.8488L44.1949 30.6415C43.7537 30.4747 43.5999 30.8592 43.5965 30.5238L43.5847 30.0714L43.5638 29.9706L43.7125 29.2574L43.7461 29.1574L44.0735 28.5634L44.2292 28.2635L44.5382 27.8871C44.8727 27.5336 44.8904 27.5615 45.2497 27.5587Z" fill="#E85332"/>
<path d="M45.9456 27.8225L45.6558 27.9254L45.5674 28.025L45.831 28.3793L45.9933 28.4927L46.0771 28.2982L46.0413 28.0804L45.9456 27.8225Z" fill="#E85332"/>
<path d="M45.9445 28.4761C45.8399 28.4225 45.7222 28.4043 45.6127 28.3779L45.3427 28.0958L45.2037 27.8037L45.2755 27.6984L45.508 27.8739L45.5024 27.8908C45.5344 27.9716 45.7225 28.2354 45.9445 28.4761Z" fill="#820202"/>
<path d="M45.1059 27.2276C44.5236 27.4771 44.211 27.9335 43.8945 28.4435L43.5085 29.4278L43.3339 30.5429C43.3687 29.6871 43.4362 29.3022 43.566 28.5517L44.3302 27.3644L45.2021 26.8318C45.6304 26.6464 45.634 25.9932 46.5371 26.3318L46.5428 26.3149C45.8838 26.3271 45.5769 26.8733 45.1059 27.2276Z" fill="#E83200"/>
<path d="M48.1263 27.2472C48.1595 27.3162 48.0717 27.3692 48.0536 27.4084C47.932 27.3905 47.8106 27.3722 47.689 27.3543C47.4519 27.2829 47.2141 27.2117 46.977 27.1403C46.7783 27.1887 46.5797 27.2365 46.381 27.2849C46.361 27.3089 46.3405 27.3328 46.3204 27.3569C46.4909 27.2118 46.6614 27.0662 46.8319 26.9212C46.8427 26.9066 46.8537 26.8916 46.8652 26.8768C47.0323 26.9046 47.199 26.9323 47.3661 26.9601C47.7409 26.8966 47.8982 27.0294 48.1263 27.2472Z" fill="#AD0000"/>
<path d="M44.5402 28.7464C44.3218 29.1409 44.1838 29.5816 44.0753 30.0204C44.0776 30.1397 44.0805 30.2586 44.0827 30.3778C44.0175 30.3732 43.9521 30.369 43.8867 30.3648C43.8963 30.138 43.9059 29.9106 43.9155 29.6838C43.912 29.6764 43.9085 29.6691 43.9047 29.661C44.3417 28.7281 44.2179 28.8829 44.6639 28.3785C44.3113 29.0654 44.7231 28.2042 44.5402 28.7464Z" fill="#AD0000"/>
<path d="M54.9002 35.9858L61.4009 31.847L61.3956 31.7059L59.9778 30.8594L46.4277 32.8423L43.0388 33.6966L33.3668 38.561L54.9002 35.9858Z" fill="#C3BDA2"/>
<path d="M54.9299 35.8112L61.3697 31.688L59.9162 30.6848L46.366 32.6677L42.9771 33.5219L33.3059 38.3872L54.9299 35.8112Z" fill="url(#paint0_linear_42_273)"/>
<path d="M48.853 30.9802C49.1188 30.851 49.0303 31.1412 49.1278 31.2294C49.5285 31.6004 49.3202 31.4403 49.7494 31.7145C50.1108 33.2262 49.4843 34.3665 48.2428 35.3632L46.2965 34.6839C47.4486 33.6305 48.245 32.4403 48.853 30.9802Z" fill="url(#paint1_linear_42_273)"/>
<path d="M49.0155 31.2911C49.0127 32.2483 48.4797 32.7708 47.7833 33.283C48.5255 32.6207 48.688 32.0354 48.8427 31.1511C49.0648 30.9814 48.9799 31.2623 49.0155 31.2911Z" fill="#FFF7BC"/>
<path d="M49.1229 31.457C49.2518 32.1296 49.3462 33.091 49.2948 33.9954C49.8002 33.2472 49.9414 32.6642 49.6858 31.8386C49.5157 31.7382 49.2234 31.3827 49.1229 31.457Z" fill="url(#paint2_linear_42_273)"/>
<path d="M42.4171 24.64L42.3509 24.9956C42.2538 24.9502 42.1785 24.9798 42.079 24.9984L42.1357 25.1738L42.1508 25.1998C42.0886 25.2299 42.0265 25.2601 41.9643 25.2902L41.9392 25.3056L42.0409 25.6172C41.9058 25.5998 41.8545 25.6358 41.7454 25.7158C41.5396 25.6234 41.6437 25.626 41.4333 25.7079L41.2155 25.6074C40.9748 25.545 40.7916 25.6283 40.6696 25.8237L40.3607 25.919C40.3138 26.1001 40.4087 26.0609 40.4391 26.1515C40.4698 26.1782 40.4523 26.2134 40.4589 26.2442C40.3029 26.4018 40.2045 26.3528 40.0557 26.4904C40.2523 26.7523 40.1851 26.7326 40.3926 26.7169L40.3791 26.8303C40.2052 26.9416 40.2468 26.8898 40.2175 27.0809L40.4404 27.1314C40.4448 27.1326 40.4495 27.1338 40.4538 27.1349L40.5021 27.3156C40.5988 27.3464 40.6005 27.333 40.68 27.3471L40.8392 27.3667C40.9356 27.304 41.0319 27.2412 41.1283 27.1785L41.1333 27.1871L41.1563 27.3249L40.9949 27.5169C40.9639 27.5257 40.9961 27.5893 40.9962 27.5977L41.0815 27.7441L41.3753 27.6814C41.3821 27.6735 41.3887 27.6656 41.3954 27.6575L41.4875 27.718C41.5862 27.6656 41.6846 27.6132 41.7831 27.5609L41.849 27.3807L42.0535 27.4777L42.2232 27.3975C42.3161 27.4959 42.4323 27.5398 42.5515 27.5707C42.4522 27.7612 42.4276 27.9705 42.3674 28.1734C42.5805 28.2172 42.5301 28.1794 42.5151 28.0363C42.5867 27.8658 42.6853 27.7283 42.8316 27.6213C43.0621 27.71 42.9454 27.6807 43.1803 27.7121C43.2358 27.8641 43.2511 28.0246 43.2934 28.1803C43.4208 28.375 43.3472 28.301 43.4993 28.4166L43.6735 28.5204L43.7544 28.3659L43.7628 28.3607L43.6675 28.1386L43.7319 27.936C43.7467 27.9563 43.7712 27.9511 43.7905 27.9586C43.9342 28.1393 43.9203 28.0966 43.8236 28.2305L44.0079 28.4101L44.1273 28.2435L44.1306 28.2301C44.2793 28.4161 44.2376 28.4919 44.4439 28.4359C44.5276 28.4531 44.6024 28.5008 44.6753 28.5398C44.7479 28.4468 44.7524 28.5036 44.7467 28.5537C44.7518 28.526 44.7571 28.4972 44.7797 28.4059C45.0436 28.4396 44.9322 28.4629 45.1204 28.3848C44.9432 28.1372 45.2451 28.5128 44.9982 28.2142L45.1561 28.1526L45.1896 28.1321L45.1364 27.943L45.1213 27.9171L45.1987 27.7765C45.1153 27.5667 45.0455 27.5682 44.8569 27.5415L44.9748 27.3528L44.985 27.3114L44.7804 27.2731C44.7686 27.2724 44.757 27.2718 44.7452 27.2711L44.7071 26.9906L44.489 27.0656C44.4846 27.0645 44.4801 27.0631 44.4757 27.062L44.4456 26.9519L44.6421 26.9369L44.6711 26.674L44.5406 26.5084L44.5357 26.5C44.6165 26.3913 44.6929 26.4116 44.8093 26.4029C44.8056 26.2377 44.7105 26.2168 44.5852 26.096C44.7072 26.0591 44.7232 26.0469 44.8185 25.9887L44.6812 25.8506L44.6678 25.8471C44.7398 25.7498 44.7853 25.701 44.7976 25.5811C44.7541 25.4612 44.6884 25.4442 44.6287 25.3691L44.713 25.1423C45.1191 25.0314 44.7913 25.0343 44.8644 24.933C44.8845 24.8274 44.9119 24.6724 44.927 24.591C44.7529 24.5645 44.6406 24.6002 44.4875 24.6376L44.5082 24.3797L44.4981 24.3624C44.4452 24.278 44.3921 24.1936 44.3392 24.1091L44.0589 24.2338L44.042 24.2441L44.0149 24.4126L44.0098 24.4622L43.8219 24.4134L43.817 24.4049C43.8487 24.054 43.8861 24.1831 43.7255 23.9351L43.5088 24.1494C43.4953 24.1655 43.4819 24.1814 43.4684 24.1975C43.5063 24.2561 43.5443 24.3145 43.5822 24.3733C43.5508 24.3846 43.5194 24.3961 43.488 24.4074C43.4351 24.3229 43.3822 24.2384 43.3293 24.154L43.2992 24.1021C42.9639 24.3836 42.9937 24.2239 42.993 24.4761C42.7447 24.4133 42.7224 24.6185 42.6754 24.8102L42.4524 24.6427C42.4406 24.6411 42.4288 24.6405 42.4171 24.64ZM42.2999 26.886C42.4993 26.7688 42.6221 26.8231 42.8129 26.7858C42.7404 26.9749 42.7524 27.1575 42.7542 27.3546C42.6179 27.3469 42.5325 27.3234 42.3985 27.2787L42.3342 26.945L42.2999 26.886ZM43.173 26.7793C43.2662 26.7311 43.3594 26.6831 43.4529 26.6351L43.5141 26.6511L43.5706 27.0161L43.5971 27.1064C43.5096 27.2616 43.3899 27.3129 43.2481 27.3995L42.9456 27.3711C42.8657 27.1042 43.0536 26.99 43.173 26.7793Z" fill="#70AB00"/>
<path d="M43.1995 24.2738L42.9942 24.6255L42.9614 24.6778C42.8083 24.5874 42.754 24.7817 42.6681 24.8246C42.8037 25.1054 42.9513 25.0746 43.1226 25.2259L43.1145 24.7784L43.1379 24.7641L43.4218 24.6556L43.2136 24.2979L43.1995 24.2738ZM43.7843 24.0215C43.733 24.1133 43.6947 24.2474 43.6749 24.4365C43.7752 24.6088 43.8328 24.8311 43.9954 24.9871L43.8195 25.2543C43.8661 25.2398 43.9907 25.2639 44.2467 25.3566C44.3577 25.3386 44.4706 25.7591 44.5795 25.3025L44.6064 25.2861L44.6651 25.2701L44.7128 25.1416C45.119 25.0308 44.791 25.0334 44.8642 24.9323C44.8835 24.8307 44.9091 24.6867 44.9246 24.6032C44.921 24.5983 44.9171 24.5936 44.9135 24.5887C44.7472 24.5661 44.6364 24.6003 44.4875 24.6368L44.5081 24.379L44.498 24.3617C44.4451 24.2772 44.392 24.1929 44.3391 24.1084L44.0586 24.2329L44.042 24.2431L44.0145 24.4114L44.0096 24.4613L43.8218 24.4124L43.8169 24.4039C43.8435 24.1127 43.8666 24.1419 43.7843 24.0215ZM43.8195 25.2543C43.801 25.2599 43.7943 25.2716 43.7974 25.288L43.8195 25.2543ZM43.7974 25.288L43.6664 25.4866L43.6826 25.5144L43.6226 25.8496L43.6118 25.8935L43.3475 26.3162C43.5576 26.2154 43.7684 26.1297 43.9712 26.0102L44.0518 25.9609L44.1278 25.6532C44.1399 25.6229 43.8153 25.3827 43.7974 25.288ZM41.8385 25.8716C41.9268 26.1388 41.8728 25.9848 42.0075 26.3313L42.1716 26.2743L42.3517 26.4387L42.3037 26.5981L42.4134 26.6898L42.4612 26.6751L42.7604 26.6078L43.0157 26.683L43.0014 26.5616L42.7131 26.4056L42.7027 26.4119L42.4227 26.2941L42.2549 26.0789L42.0763 26.1591L42.0597 26.1548L41.8385 25.8716ZM40.3501 26.9896L40.7144 27.1776L40.8489 27.0954L41.365 26.8551L41.2952 26.8604L40.9408 26.8155C40.7199 26.8424 40.5461 26.8862 40.3501 26.9896ZM41.4178 27.196L41.1216 27.5637C41.4457 27.5065 41.4965 27.611 41.7343 27.3014L42.2338 27.2204L41.955 27.0547L41.7992 27.0377L41.4178 27.196ZM43.6206 26.5972C43.6149 26.7741 43.645 26.955 43.603 27.1306L43.6298 27.1142L43.8986 26.9501L44.0116 26.9559L44.467 26.9484C44.4485 26.7999 44.2307 26.8033 44.2272 26.6375L43.7759 26.8013C43.7269 26.7367 43.6141 26.706 43.6206 26.5972ZM43.4352 27.7184C43.4821 27.9579 43.5703 28.2013 43.569 28.4574L43.6741 28.5201L43.755 28.3656L43.7635 28.3604L43.6681 28.1383L43.7325 27.9356C43.7473 27.956 43.7719 27.9508 43.7911 27.9583C43.9349 28.1389 43.9211 28.0962 43.8243 28.2302L44.0084 28.4095L44.1278 28.243L44.131 28.2293C44.2797 28.4153 44.238 28.4912 44.4443 28.4352C44.528 28.4524 44.6028 28.5001 44.6757 28.5391C44.7483 28.446 44.7529 28.5028 44.7471 28.553C44.7522 28.5253 44.7573 28.4966 44.7799 28.4053C45.0438 28.439 44.9324 28.4623 45.1206 28.3842C45.0326 28.2615 45.0626 28.2919 45.0851 28.3174C45.0731 28.3032 45.0529 28.2794 44.9984 28.2136L45.1253 28.1641C45.1095 28.1419 45.0947 28.1202 45.0767 28.0971C44.8583 27.9904 44.5815 27.908 44.3744 27.7048C44.2338 27.7239 44.0188 27.5678 43.9018 27.7694C43.7468 27.7524 43.5824 27.8171 43.4352 27.7184Z" fill="#477A00"/>
<path d="M40.5216 25.9827C40.5565 26.0929 40.4371 25.9918 40.6061 26.2488L40.8864 26.2943L40.8678 26.2624L40.7644 26.1088C40.7546 26.1004 40.7449 26.0919 40.7354 26.0833L40.5216 25.9827ZM40.8688 25.8284L40.976 26.1095C40.9828 26.1293 40.9896 26.1493 40.9964 26.1691L41.2636 26.4102L41.4187 26.6767L41.4497 26.7299L41.3738 26.3576L41.146 26.1357L41.2297 25.9403L41.211 25.9082L40.9639 25.8713L40.8688 25.8284ZM43.2605 24.7268C43.2143 24.8533 43.2288 25.0089 43.1199 25.1113C43.2732 25.4293 43.0953 25.2662 42.9199 25.2138C42.7696 25.1687 42.5607 25.2035 43.2472 25.7056C43.2129 25.8137 43.2499 25.8869 43.2996 26.2238C43.4356 25.9526 43.3606 25.8384 43.4143 25.4918L43.4251 25.4478L43.3294 25.0958C43.3103 24.9928 43.5703 24.7723 43.2605 24.7268ZM42.3402 25.6711C42.2843 25.7376 42.5049 25.9654 42.1722 25.8705C42.3665 25.9797 42.388 26.0235 42.641 26.1339L42.6782 26.1435L42.9528 26.0728C42.8614 26.0423 42.7545 26.0664 42.6788 25.9815L42.6648 25.9576L42.3402 25.6711ZM43.735 26.4171L44.0709 26.5585L44.2312 26.4462L44.4611 26.6234L44.4782 26.4829L44.3126 26.2952L44.296 26.2909L44.0238 26.3561C43.8714 26.3883 43.9867 26.4463 43.735 26.4171ZM42.8657 27.3867L43.1909 27.5116L43.5441 27.5221L43.67 27.4128L43.9633 27.2661L43.9171 27.1325L43.6052 27.3555L43.5215 27.3742L43.2563 27.4068L42.8657 27.3867ZM44.2649 27.2907C44.242 27.3038 44.215 27.3222 44.1144 27.3836C44.0863 27.4286 44.078 27.4938 44.0269 27.5236L44.0684 27.4983L44.4258 27.4099L44.627 27.489L44.6316 27.3275L44.391 27.2292C44.3067 27.2698 44.2878 27.2775 44.2649 27.2907Z" fill="#9CCA0C"/>
<path d="M43.7975 28.4869C44.7846 27.6864 46.6651 27.2437 47.8401 27.6092C47.2328 28.3271 46.4056 28.762 45.6278 29.2172C44.917 29.0239 44.2815 28.9226 43.7975 28.4869Z" fill="#FFF7BC"/>
<path d="M44.3957 28.4307C45.2511 27.9599 46.3508 27.8952 47.2838 27.8734C47.4208 28.0737 48.0121 28.3722 48.1529 28.5756C48.9878 29.7806 49.0585 31.9358 45.7815 30.3465C45.4756 30.0589 44.6491 28.765 44.3957 28.4307Z" fill="url(#paint3_linear_42_273)"/>
<path d="M48.0197 28.8493C47.8531 30.7979 45.6362 32.2024 44.1301 33.059C46.3181 34.1416 48.5684 30.5664 48.2853 28.532C48.0783 28.4814 48.0821 28.7737 48.0197 28.8493Z" fill="url(#paint4_linear_42_273)"/>
<path d="M48.3287 28.4416C48.5273 30.6879 46.0007 32.3972 44.3949 33.1946C45.5388 33.9561 44.9611 33.6287 46.1187 34.1907C47.7587 33.2296 48.9033 32.6607 48.9033 30.6146C48.8203 29.5866 48.7602 29.4946 48.3287 28.4416Z" fill="url(#paint5_linear_42_273)"/>
<path d="M44.7047 33.6022C46.2389 32.3926 47.433 31.6225 48.0197 30.0714C47.4003 31.5071 45.6811 32.4167 44.3508 33.1954L44.7047 33.6022Z" fill="#FDD363"/>
<path d="M45.2284 29.2447C46.4023 28.5823 47.6478 27.6419 48.5579 26.8811C49.0882 26.9799 49.4338 27.6443 49.6563 27.8621C49.8662 27.9895 49.6522 28.215 49.571 28.4164C48.521 28.9845 47.4918 29.6024 46.4547 30.2008C45.9694 30.0314 45.5279 29.7588 45.2284 29.2447Z" fill="url(#paint6_linear_42_273)"/>
<path d="M45.9255 30.0048C47.1706 29.35 48.4247 28.6512 49.6382 27.8912C49.8705 27.9603 49.6787 28.3461 49.6775 28.3507C48.56 28.8538 47.5299 29.5275 46.4644 30.1514C44.7072 30.0553 46.8138 30.2466 45.9255 30.0048Z" fill="url(#paint7_linear_42_273)"/>
<path d="M46.6824 28.6127C47.4054 28.2465 47.9763 27.7089 48.5403 27.1706C48.7574 27.3348 48.9529 27.5233 49.1502 27.7068C48.2995 28.0408 47.5549 28.4668 46.6824 28.6127Z" fill="#FEE688"/>
<path d="M37.1207 29.9953C39.0596 30.7608 41.528 30.2986 43.1213 29.0173C43.3076 29.6783 43.6627 30.3113 43.9282 30.9358C42.1669 31.455 39.1476 32.5935 37.4711 31.3496C37.4346 30.8679 37.2673 30.4413 37.1207 29.9953Z" fill="#DE7A02"/>
<path d="M35.6114 30.2969C37.5804 33.6097 42.1035 33.2826 45.2266 32.0651C45.0792 31.6394 45.0102 31.1891 44.9111 30.7481C39.9498 32.1832 38.0917 30.6496 37.5416 30.1083C36.8987 30.048 36.2495 30.1882 35.6114 30.2969Z" fill="url(#paint8_linear_42_273)"/>
<path d="M36.5589 31.8013C39.5235 32.2252 42.0482 31.933 44.0338 30.0714C44.469 30.2838 44.8408 30.7485 45.2974 31.0493C43.6898 33.8888 38.8188 34.5643 36.3139 32.8548L35.4016 31.6509L36.5589 31.8013Z" fill="url(#paint9_linear_42_273)"/>
<path d="M44.4199 31.1989C42.2226 32.9891 39.4126 33.6994 36.6295 32.741V33.4929C40.2124 35.6289 45.4187 33.3417 45.754 32.0256V31.9882L44.4199 31.1989Z" fill="url(#paint10_radial_42_273)"/>
<path d="M38.8751 33.2678C40.8449 33.3204 42.6998 32.4784 44.385 31.4622C44.3501 31.5753 44.3145 31.6883 44.2796 31.8004C42.3137 33.1361 39.8247 34.3001 37.5418 33.3425C37.3468 33.3638 37.1677 33.2168 36.9806 33.1547C36.9687 33.0919 36.9568 33.029 36.9457 32.967C37.6155 32.9525 38.2132 33.2176 38.8751 33.2678Z" fill="#F9E68D"/>
<path d="M42.63 33.0052C43.4179 32.7477 44.2328 32.0205 44.6656 31.6891C45.054 31.6305 45.3656 31.8658 45.7183 32.0273C45.016 33.0197 43.154 34.0452 42.0688 33.2312C42.221 33.1811 42.3732 33.131 42.5254 33.0808C42.5603 33.0553 42.5951 33.0298 42.63 33.0052Z" fill="url(#paint11_linear_42_273)"/>
<path d="M37.893 31.9517C41.2936 32.097 42.9114 30.9423 43.9292 30.1835C44.125 30.1028 44.4651 30.4622 44.4904 30.4843C42.9875 31.7172 40.3907 32.6034 37.893 31.9517Z" fill="#F9E68D"/>
<path d="M38.0265 32.5557C39.6118 31.2812 41.1021 29.6286 43.022 30.3033L43.4318 30.508H43.5412C41.951 27.4858 37.9092 29.3805 36.9905 31.2098L38.0265 32.5557Z" fill="url(#paint12_radial_42_273)"/>
<path d="M39.9915 28.163C37.9789 26.8885 35.4035 28.5402 33.9085 29.9353L35.8117 30.4035C37.1704 29.2089 38.4712 28.4586 40.0851 28.6311L40.4592 28.7314C40.2904 28.5546 40.139 28.3601 39.9915 28.163Z" fill="#FEF9A3"/>
<path d="M34.4697 30.0017C36.1811 28.1316 38.4593 27.6507 39.8354 28.3967C38.2096 28.3737 36.9516 29.7391 35.78 30.4367C35.3092 30.4392 34.8851 30.2098 34.4697 30.0017Z" fill="url(#paint13_linear_42_273)"/>
<path d="M34.8447 29.7009C36.2786 28.2335 38.1795 27.5308 39.898 28.2964L39.4612 28.4298C37.9908 28.0236 36.2335 28.8011 34.8447 29.7009Z" fill="#FDD05E"/>
<path d="M43.7972 29.9353C45.6394 30.9897 47.6821 32.0867 48.6326 33.7137C48.5628 34.0349 48.237 33.8318 48.0087 34.0485C47.8676 34.0901 47.652 34.3969 47.541 34.4835C44.9632 32.1045 45.3374 32.6253 44.016 31.7748C44.0976 31.2166 43.9454 30.4383 43.7972 29.9353Z" fill="url(#paint14_linear_42_273)"/>
<path d="M46.6667 31.7069C46.2719 31.8522 45.9232 32.4215 45.6061 32.6764C45.3445 32.4716 44.9759 32.2889 44.7016 32.1411C45.0909 31.7273 45.5657 31.2626 46.1055 31.1045C46.4289 31.1886 46.5525 31.4282 46.6667 31.7069Z" fill="#FDA210"/>
<path d="M42.2277 28.1044C40.812 28.0509 38.5489 26.9089 39.7363 25.0881C39.4161 25.0711 39.3265 25.3838 39.0491 25.4102C37.6159 27.7034 39.8203 28.4723 41.3042 28.9787C41.7132 28.7212 42.3989 28.6108 42.2277 28.1044Z" fill="url(#paint15_linear_42_273)"/>
<path d="M39.2845 25.4102C38.7526 26.5954 39.1069 27.6201 40.3585 28.1732L41.2392 28.0118C39.8711 27.6176 39.4184 26.8418 39.2845 25.4102Z" fill="#F9D46D"/>
<path d="M39.2631 25.5486C39.0047 26.931 39.7696 27.6226 40.9816 28.0118C41.3042 27.9863 41.2606 27.943 41.5832 27.943C40.1073 27.4238 39.0055 26.7059 39.6071 25.157L39.2631 25.5486Z" fill="#FFF7BC"/>
<path d="M41.1108 29.3015C43.771 29.3219 44.7793 33.8539 41.9273 34.159C41.8242 34.3068 41.7347 34.2626 41.6269 34.3204C41.328 35.3604 41.6808 34.0672 41.519 34.8268C43.557 35.3289 45.6037 32.5548 44.6335 30.4757C44.2062 29.559 43.2423 28.9328 42.1849 28.9328C41.9566 28.9328 40.5052 29.1069 41.1108 29.3015Z" fill="url(#paint16_linear_42_273)"/>
<path d="M43.9668 30.6831C44.7318 32.5183 43.8463 34.0672 42.2911 34.7809C43.966 34.6968 44.9077 32.944 44.8301 31.7417C44.7928 31.1512 44.5185 31.0153 43.9668 30.6831Z" fill="#FFF1A0"/>
<path d="M43.4516 30.1767C44.9355 31.6245 44.0818 34.7809 41.6689 34.735C41.5539 34.6348 41.6831 34.5965 41.6903 34.5277C44.3426 33.7341 44.1373 31.7936 43.4516 30.1767Z" fill="#F0C045"/>
<path d="M36.2641 29.9695C36.6755 29.5787 37.8891 29.0171 39.044 28.5549C39.8525 28.1972 40.4264 28.0417 41.3095 27.9593C43.9372 27.9618 46.515 28.7452 48.2296 31.0936L48.3191 31.6204C48.1566 31.6485 48.0512 31.7614 47.9394 31.86C47.987 32.0359 47.746 32.1633 47.6493 32.3146C47.4797 32.2959 47.4393 32.1973 47.337 32.0512C45.6343 30.5677 42.1703 28.8506 39.9033 29.204C39.1344 29.3238 37.9652 30.1132 37.381 30.5915L36.0635 30.3281L36.2641 29.9695Z" fill="#FEF2A3"/>
<path d="M37.8709 30.1845C38.6485 29.5303 39.6346 29.2278 40.6833 29.2278C39.258 29.1658 37.4055 29.2949 36.3973 30.3765C36.769 30.4283 37.0798 30.4938 37.4238 30.5677C37.5784 30.447 37.7195 30.3069 37.8709 30.1845Z" fill="#FDAF0D"/>
<path d="M36.2641 30.0418C37.8495 28.8871 39.5466 28.6195 41.2286 28.9033C43.0788 29.2159 46.6672 31.1072 47.5201 31.9645C47.6882 32.1336 47.5701 32.0368 47.509 32.1277C43.6352 29.7563 39.7749 27.8233 36.3529 30.329C36.249 30.402 36.1531 30.3128 36.0628 30.3052C36.0953 30.2304 36.1373 30.1607 36.2641 30.0418Z" fill="url(#paint17_linear_42_273)"/>
<path d="M40.2687 28.153C42.4668 27.7231 46.8828 28.8242 48.1979 31.4649C47.8951 31.4632 47.8697 31.8167 47.7603 31.9339C47.2451 31.7283 46.7663 31.3842 46.4477 30.9373C44.9558 29.5847 42.1989 28.0009 40.2687 28.153Z" fill="url(#paint18_linear_42_273)"/>
<path d="M38.9291 28.6806C40.5089 28.2626 42.6341 28.7104 44.3153 29.7359C43.4228 29.5473 41.5394 28.2711 38.218 28.9152C38.4471 28.8446 38.6849 28.7749 38.9291 28.6806Z" fill="#FFF7BC"/>
<path d="M37.8624 31.9414C38.8097 31.011 40.7763 29.3372 42.2301 29.9812C41.324 30.1222 40.5829 30.2378 38.0812 32.3806C37.8632 32.3934 37.9583 32.0951 37.8624 31.9414Z" fill="#F0C045"/>
<path d="M37.8894 31.8242C38.2928 31.3696 38.9167 31.0068 39.4724 30.7417C40.1493 30.2362 41.1203 29.8878 41.9019 29.6592C41.3597 29.4757 41.5944 29.367 40.5916 29.367C39.4993 30.0339 38.4657 30.768 37.8894 31.8242Z" fill="url(#paint19_radial_42_273)"/>
<path d="M40.1384 30.8611C41.0112 30.9265 41.9727 31.037 42.8755 30.8611C42.675 30.822 42.8288 30.7107 42.805 30.6351C42.2097 29.7761 40.7496 30.6427 40.1384 30.8611Z" fill="url(#paint20_linear_42_273)"/>
<path d="M49.5433 27.8734C49.6689 27.9677 49.5098 27.942 49.5075 27.9459C49.0684 27.9459 49.6103 27.9288 49.2944 27.9825C48.5365 28.3317 47.8317 28.7768 47.1019 29.1844C47.7237 28.769 48.3287 28.3122 48.9626 27.91L49.1879 27.716C49.194 27.472 49.1453 27.4541 49.0281 27.3153C49.2526 27.4572 49.3782 27.7261 49.5433 27.8734Z" fill="#FFF7BC"/>
<path d="M21.3448 35.667L14.4681 28.8212L15.2512 27.2171L27.5358 23.5421L30.3935 23.6715L38.4619 31.5516L38.2466 31.5227L21.3448 35.667Z" fill="url(#paint21_linear_42_273)"/>
<path d="M54.9877 35.8657L49.4718 59.923H38.0205V31.4136L54.9877 35.8657Z" fill="url(#paint22_linear_42_273)"/>
<path d="M38.328 59.9331L38.2512 31.4837L37.7983 31.4689L37.828 60.011L38.328 59.9331Z" fill="url(#paint23_linear_42_273)"/>
<path d="M21.1333 35.8112L14.2566 28.9654L15.0397 27.3613L27.3242 23.6863L30.1819 23.8157L38.0632 31.4316L21.1333 35.8112Z" fill="url(#paint24_linear_42_273)"/>
<path d="M21.0534 35.8657L26.5693 59.923H38.0206V31.4136L21.0534 35.8657Z" fill="url(#paint25_linear_42_273)"/>
<path d="M28.5792 37.6374C28.2284 37.6374 28.032 38.1487 28.1393 38.7847L31.6918 59.898H32.9582L29.4049 38.7847C29.2984 38.1487 28.9293 37.6374 28.5792 37.6374ZM27.6233 41.5283C27.2725 41.5283 27.0762 42.0396 27.1835 42.6757L30.0815 59.898H31.3478L28.4491 42.6749C28.3425 42.0396 27.9742 41.5283 27.6233 41.5283ZM30.844 41.5283C30.4932 41.5283 30.2968 42.0396 30.4041 42.6757L33.3022 59.898H34.5685L31.6705 42.6757C31.5632 42.0396 31.1949 41.5283 30.844 41.5283ZM27.0495 47.6882C26.6987 47.6882 26.5023 48.1995 26.6096 48.8355L28.4711 59.898H29.7375L27.8752 48.8355C27.7687 48.2003 27.4004 47.6882 27.0495 47.6882ZM33.4909 47.6882C33.1401 47.6882 32.9437 48.1995 33.051 48.8355L34.9125 59.898H36.1789L34.3174 48.8355C34.2101 48.2003 33.8417 47.6882 33.4909 47.6882Z" fill="url(#paint26_linear_42_273)"/>
<path d="M19.7654 56.7635L59.9159 37.4043L60.838 36.6846L60.1457 35.2453L59.0266 35.5556L19.5721 56.3616L19.4542 56.6708L19.7654 56.7635Z" fill="url(#paint27_linear_42_273)"/>
<path d="M19.7654 56.7635L59.7524 37.0646L59.18 35.8745L19.5723 56.3622L19.4544 56.6714L19.7654 56.7635Z" fill="url(#paint28_linear_42_273)"/>
<path d="M59.8544 37.0152L59.2832 35.8277L60.2407 35.5124L60.6794 36.4244L59.8544 37.0152Z" fill="url(#paint29_linear_42_273)"/>
<path d="M59.9949 37.3385L59.8818 37.0925L60.6963 36.4718L60.7956 36.6781L59.9949 37.3385Z" fill="#A42424"/>
<path d="M59.1061 35.5315L59.2276 35.7732L60.2203 35.4821L60.121 35.2758L59.1061 35.5315Z" fill="#FE8686"/>
<path d="M19.5418 56.5547L19.6045 56.3759L34.7174 48.5474L19.5418 56.5547Z" fill="#FFD5D5"/>
<path d="M59.2353 35.9665L34.5268 48.6484L59.1657 35.8218L59.2353 35.9665Z" fill="#FE8686"/>
<path d="M20.4267 54.1045L63.2573 42.2096L64.2879 41.6655L63.8511 40.1246L62.6963 40.2304L20.3047 53.6742L20.136 53.9576L20.4267 54.1045Z" fill="url(#paint30_linear_42_273)"/>
<path d="M20.4267 54.1045L63.1542 41.8458L62.7932 40.5723L20.3051 53.6753L20.1363 53.9587L20.4267 54.1045Z" fill="url(#paint31_linear_42_273)"/>
<path d="M63.263 41.8154L62.9027 40.5441L63.8992 40.4046L64.176 41.381L63.263 41.8154Z" fill="url(#paint32_linear_42_273)"/>
<path d="M63.3469 42.1587L63.2774 41.8963L64.1851 41.4305L64.2477 41.6514L63.3469 42.1587Z" fill="#A42424"/>
<path d="M62.7787 40.2208L62.8572 40.4805L63.8842 40.3711L63.8216 40.1502L62.7787 40.2208Z" fill="#FE8686"/>
<path d="M20.242 53.859L20.3342 53.6941L36.5482 48.6836L20.242 53.859Z" fill="#FFD5D5"/>
<path d="M62.8319 40.6722L36.3433 48.7488L62.788 40.5173L62.8319 40.6722Z" fill="#FE8686"/>
<path d="M16.3437 68.65L16.3317 68.4467V65.291L15.3989 65.3156V63.6453L17.1562 63.6823C17.3848 63.6823 17.7098 63.6762 18.125 63.6577C18.5523 63.633 18.8291 63.6207 18.9615 63.6207V65.3156L18.0649 65.291V72.3296L15.76 72.3173C15.5072 71.8674 15.1582 71.2264 14.7069 70.4066C13.9967 69.1185 13.6357 68.4528 13.6176 68.422C13.3588 67.9536 12.9857 67.3003 12.5103 66.462V66.8257V70.684L13.419 70.6593L13.4311 72.342C13.1061 72.342 12.7751 72.3358 12.4381 72.3296C12.1011 72.3111 11.8243 72.2988 11.6136 72.2926L9.85641 72.3296V70.6593L10.7772 70.684V65.291L9.85641 65.3156L9.84438 63.633C10.1934 63.633 10.5184 63.6392 10.8253 63.6453C11.1322 63.6515 11.4391 63.6638 11.746 63.67L13.5875 63.633L16.2354 68.459L16.3437 68.65Z" fill="#D40000"/>
<path d="M23.8902 72.5577C22.5422 72.5577 21.459 72.1447 20.6285 71.3126C19.804 70.4806 19.3888 69.3712 19.3888 67.9844C19.3888 66.6038 19.798 65.5005 20.6164 64.6685C21.4409 63.8302 22.5302 63.4111 23.8782 63.4111C25.2503 63.4111 26.3455 63.8364 27.164 64.6808C27.9824 65.5252 28.3916 66.6469 28.3916 68.046C28.3916 69.402 27.9704 70.4929 27.1279 71.325C26.2974 72.1509 25.2141 72.5577 23.8902 72.5577ZM25.8159 67.3249C25.7377 66.7024 25.5512 66.2032 25.2503 65.8272C24.9133 65.3896 24.4679 65.1739 23.9143 65.1739C23.2222 65.1739 22.6987 65.4697 22.3556 66.0552C22.0668 66.5483 21.9163 67.1893 21.9163 67.9782C21.9163 68.7795 22.0608 69.4205 22.3556 69.9136C22.7047 70.5052 23.2162 70.7949 23.9022 70.7949C24.5462 70.7949 25.0456 70.5052 25.4007 69.9259C25.7076 69.4205 25.8641 68.7918 25.8641 68.0522C25.8641 67.9043 25.8641 67.7563 25.8641 67.6023C25.84 67.4728 25.828 67.3804 25.8159 67.3249Z" fill="#D40000"/>
<path d="M33.4888 72.5577C32.1408 72.5577 31.0576 72.1447 30.2271 71.3126C29.4026 70.4806 28.9874 69.3712 28.9874 67.9844C28.9874 66.6038 29.3966 65.5005 30.2151 64.6685C31.0395 63.8302 32.1288 63.4111 33.4768 63.4111C34.8489 63.4111 35.9441 63.8364 36.7626 64.6808C37.581 65.5252 37.9902 66.6469 37.9902 68.046C37.9902 69.402 37.569 70.4929 36.7265 71.325C35.89 72.1509 34.8127 72.5577 33.4888 72.5577ZM35.4145 67.3249C35.3363 66.7024 35.1498 66.2032 34.8489 65.8272C34.5119 65.3896 34.0665 65.1739 33.5129 65.1739C32.8208 65.1739 32.2973 65.4697 31.9542 66.0552C31.6654 66.5483 31.5149 67.1893 31.5149 67.9782C31.5149 68.7795 31.6594 69.4205 31.9542 69.9136C32.3033 70.5052 32.8148 70.7949 33.5008 70.7949C34.1448 70.7949 34.6442 70.5052 34.9993 69.9259C35.3062 69.4205 35.4627 68.7918 35.4627 68.0522C35.4627 67.9043 35.4627 67.7563 35.4627 67.6023C35.4386 67.4728 35.4206 67.3804 35.4145 67.3249Z" fill="#D40000"/>
<path d="M43.6411 72.2557C43.2499 72.305 42.8587 72.3296 42.4856 72.3296L40.1807 72.2926L38.4235 72.3296V70.6593L39.3563 70.684V65.291L38.4355 65.3156L38.4235 63.6207C38.7304 63.6207 39.1035 63.633 39.5428 63.6577C39.9942 63.6762 40.253 63.6823 40.3252 63.6823L42.3833 63.6453C43.7614 63.6453 44.8446 64.0028 45.633 64.7239C46.4574 65.4759 46.8727 66.5483 46.8727 67.9536C46.8727 69.0877 46.6139 70.0368 46.1024 70.7949C45.5307 71.6393 44.7122 72.1262 43.6411 72.2557ZM44.4113 67.405C44.2789 66.6777 44.0202 66.1477 43.6411 65.8087C43.2619 65.4635 42.7203 65.291 42.0102 65.291L41.6672 65.3033V70.684L42.0583 70.6963C42.8527 70.6963 43.4244 70.5361 43.7734 70.2094C44.1285 69.8766 44.3512 69.3034 44.4354 68.4898L44.4595 68.0522C44.4595 67.9228 44.4595 67.7872 44.4595 67.6516C44.4354 67.5406 44.4174 67.4543 44.4113 67.405Z" fill="#D40000"/>
<path d="M54.2988 70.5792L54.3349 72.3358L51.1936 72.2988H50.4714L47.306 72.3358V70.6655L48.2267 70.6901V65.2971L47.318 65.3218L47.306 63.6392C47.6851 63.6392 48.0402 63.6453 48.3832 63.6515C48.7202 63.6576 49.0632 63.67 49.4002 63.6761L51.4764 63.6392V65.3218L50.5316 65.2971V70.6778H52.692V69.9998C52.692 69.7656 52.68 69.4328 52.6559 68.9952C52.6379 68.5514 52.6318 68.2617 52.6318 68.1261L54.359 68.1138C54.359 68.5329 54.353 68.8596 54.3469 69.0938C54.3108 70.043 54.2988 70.536 54.2988 70.5792Z" fill="#D40000"/>
<path d="M61.8332 70.986L61.8453 72.3296L58.2526 72.2926L54.6839 72.3296V70.6593L55.6047 70.684V65.291L54.6839 65.3156V63.633C55.2617 63.633 55.8875 63.6392 56.5615 63.6577C57.2476 63.6638 57.8073 63.6761 58.2405 63.6823C58.7039 63.6823 59.3478 63.6762 60.1783 63.6577C61.0028 63.633 61.5263 63.6207 61.737 63.6207L61.7129 66.6716H59.9436V65.3156H57.9096V67.1154L59.8594 67.103V68.7733L57.9096 68.761V70.6593H60.07V69.3527H61.8633L61.8332 70.986Z" fill="#D40000"/>
<path d="M66.774 63.6206H68.3807C68.3807 63.8487 68.3687 64.1137 68.3446 64.4342C68.3266 64.7424 68.3206 64.9211 68.3206 64.9643C68.3206 65.0999 68.3266 65.3526 68.3446 65.7162C68.3627 66.0799 68.3687 66.3141 68.3687 66.4188H66.9184C66.9184 66.16 66.8642 65.9319 66.7619 65.7409C66.6656 65.5498 66.4971 65.3895 66.2564 65.2663C66.0217 65.143 65.787 65.0875 65.5583 65.0875C65.3357 65.0875 65.1491 65.1492 64.9927 65.2663C64.8422 65.3772 64.77 65.5375 64.77 65.7532C64.77 66.0121 64.8783 66.1908 65.0889 66.2832C65.7088 66.5976 66.3226 66.9119 66.9304 67.2263C67.5442 67.5406 67.9836 67.8734 68.2544 68.2309C68.5793 68.6562 68.7358 69.1924 68.7358 69.8396C68.7358 70.6408 68.465 71.2818 67.9234 71.7749C67.3878 72.2618 66.7318 72.5022 65.9615 72.5022C65.6305 72.5022 65.3116 72.4467 65.0047 72.3419C64.7038 72.2433 64.433 72.0892 64.1923 71.8797V72.3296H62.6577C62.6577 72.12 62.6637 71.8489 62.6818 71.516C62.6998 71.1832 62.7058 70.9428 62.7058 70.7887C62.7058 70.6038 62.6938 70.3326 62.6697 69.9752C62.6517 69.6177 62.6457 69.3835 62.6457 69.2602L64.3126 69.2479L64.2645 69.5992C64.2645 70.1292 64.4932 70.5175 64.9505 70.7579C65.1491 70.8627 65.3477 70.9182 65.5523 70.9182C65.787 70.9182 65.9856 70.8565 66.1421 70.7271C66.2985 70.5915 66.3768 70.4066 66.3768 70.1847C66.3768 69.8519 66.0879 69.5376 65.5162 69.2417C65.456 69.2109 65.2153 69.0938 64.7941 68.9027C63.9094 68.4836 63.2896 68.0337 62.9285 67.5591C62.6216 67.1461 62.4651 66.69 62.4651 66.1785C62.4651 65.3649 62.7179 64.7054 63.2234 64.1938C63.7289 63.6884 64.3728 63.4296 65.1612 63.4296C65.45 63.4296 65.7268 63.4789 65.9856 63.5775C66.2504 63.6638 66.5152 63.7932 66.7679 63.9658L66.774 63.6206Z" fill="#D40000"/>
<path d="M41.5288 20.7045C29.9984 17.216 -0.843481 23.0898 13.8403 34.2949C0.973933 22.3502 32.875 18.5227 41.5288 20.7045Z" fill="#D40000"/>
<path d="M10.8355 14.3894C10.9208 14.7215 11.0114 15.0604 11.1067 15.4122C11.2027 15.7579 11.298 16.1097 11.3993 16.4622C11.5005 16.8147 11.6018 17.1672 11.7091 17.5204C11.8163 17.8735 11.9242 18.2206 12.0322 18.5676C12.1407 18.9085 12.2506 19.2372 12.3665 19.5665C12.483 19.8897 12.5949 20.2 12.7081 20.4981C12.7794 20.6797 12.8406 20.8417 12.8992 20.9723C12.9578 21.1029 13.0064 21.2138 13.0516 21.2996C13.0969 21.3853 13.1381 21.452 13.1807 21.5064C13.218 21.554 13.2565 21.5894 13.2971 21.6063C13.3317 21.6227 13.3729 21.6335 13.4094 21.6314C13.446 21.6294 13.4898 21.6157 13.5403 21.5966C13.6287 21.5632 13.719 21.5114 13.8054 21.4405C13.8977 21.3704 13.9847 21.2934 14.0677 21.1974L14.1754 21.3212C14.1303 21.4029 14.0666 21.4887 13.9896 21.5854C13.9125 21.6821 13.8302 21.772 13.7352 21.8667C13.6469 21.9559 13.5533 22.0384 13.455 22.1079C13.3626 22.178 13.2783 22.2305 13.2019 22.2653C13.1009 22.3035 13.0152 22.3124 12.9334 22.2846C12.8576 22.2574 12.7798 22.1928 12.706 22.0914C12.6321 21.9901 12.5569 21.8451 12.4737 21.6621C12.3965 21.4798 12.3 21.2518 12.2014 20.9865C12.1635 20.8892 12.1115 20.7531 12.0469 20.5659C11.9817 20.3849 11.9077 20.172 11.8252 19.927C11.7426 19.682 11.656 19.418 11.5601 19.1281C11.4641 18.8383 11.3629 18.5416 11.263 18.2326C11.1571 17.923 11.0578 17.608 10.952 17.2984C10.8467 16.9826 10.7468 16.6737 10.6569 16.3845C10.5616 16.0885 10.4704 15.8116 10.3898 15.5482C10.3032 15.2842 10.2312 15.0528 10.1679 14.8534C10.1546 14.8085 10.1532 14.765 10.1639 14.7228C10.1745 14.6806 10.197 14.6397 10.2249 14.6056C10.2528 14.5716 10.2926 14.5389 10.3318 14.5123C10.377 14.4864 10.4222 14.4605 10.4667 14.4407C10.569 14.3903 10.6919 14.3732 10.8355 14.3894Z" fill="#07143B"/>
<path d="M14.0242 19.9151C13.9603 19.7218 13.9216 19.519 13.8955 19.3115C13.8701 19.0978 13.8686 18.8868 13.885 18.6778C13.9022 18.4627 13.9419 18.2625 14.0002 18.0583C14.0645 17.8548 14.1448 17.6716 14.2543 17.498C14.3639 17.3243 14.4947 17.1779 14.6541 17.0471C14.8135 16.9162 15.0001 16.8133 15.2074 16.7437C15.4459 16.6653 15.6719 16.6474 15.8852 16.6901C16.1046 16.7335 16.3014 16.8178 16.4816 16.9435C16.6617 17.0693 16.8141 17.2291 16.9445 17.4237C17.0808 17.6189 17.1793 17.8285 17.252 18.0537C17.3159 18.247 17.3546 18.4498 17.3807 18.6574C17.4061 18.8711 17.4076 19.0821 17.3904 19.2972C17.374 19.5061 17.3336 19.7124 17.2693 19.9159C17.2116 20.1141 17.1247 20.3027 17.0158 20.4702C16.9063 20.6438 16.7755 20.7903 16.6161 20.9211C16.4567 21.0519 16.27 21.1548 16.0627 21.2244C15.8242 21.3029 15.5983 21.3207 15.3783 21.2835C15.1649 21.2408 14.9681 21.1565 14.7879 21.0307C14.6084 20.8988 14.4561 20.739 14.3197 20.5438C14.1953 20.3499 14.0968 20.1403 14.0242 19.9151ZM14.6047 19.4164C14.6453 19.545 14.6979 19.675 14.7571 19.7995C14.8223 19.9247 14.8942 20.0444 14.9734 20.1526C15.0525 20.2607 15.1383 20.3634 15.2381 20.4491C15.3319 20.5341 15.4329 20.6076 15.5426 20.6572C15.6523 20.7068 15.764 20.738 15.8836 20.7515C16.0032 20.765 16.1262 20.7479 16.2518 20.7063C16.3899 20.6599 16.5002 20.5917 16.5832 20.4957C16.6662 20.3997 16.7326 20.2894 16.7764 20.1641C16.8201 20.0388 16.8466 19.9054 16.8558 19.7638C16.865 19.6222 16.8629 19.4732 16.8482 19.3289C16.8341 19.1785 16.8127 19.0396 16.7794 18.8995C16.7521 18.76 16.7167 18.6381 16.6808 18.5225C16.6401 18.3939 16.5875 18.2639 16.5223 18.1387C16.4631 18.0142 16.3912 17.8945 16.3121 17.7863C16.2329 17.6781 16.1411 17.5747 16.0473 17.4897C15.9542 17.3986 15.8525 17.3313 15.7428 17.2817C15.6338 17.226 15.5221 17.1948 15.4018 17.1874C15.2822 17.1738 15.1652 17.1916 15.0397 17.2333C14.9015 17.2796 14.7912 17.3478 14.7082 17.4438C14.6252 17.5399 14.5595 17.644 14.5157 17.7693C14.4719 17.8946 14.4455 18.028 14.4363 18.1696C14.4271 18.3112 14.4292 18.4602 14.4439 18.6045C14.4586 18.7488 14.4793 18.8938 14.5067 19.0333C14.5327 19.185 14.568 19.3069 14.6047 19.4164Z" fill="#07143B"/>
<path d="M18.4266 16.7045C18.4112 16.6222 18.3879 16.5575 18.3633 16.5051C18.3387 16.4527 18.3127 16.4126 18.2788 16.3902C18.2456 16.3616 18.211 16.3453 18.1751 16.3412C18.1332 16.3365 18.0907 16.3379 18.0409 16.3509C17.9724 16.3679 17.8907 16.3959 17.8017 16.4355C17.7127 16.475 17.6097 16.5316 17.4941 16.5929L17.4069 16.3908C17.5304 16.3118 17.6533 16.2389 17.7643 16.1646C17.8812 16.091 17.9908 16.029 18.0871 15.9778C18.1834 15.9267 18.2731 15.8811 18.3495 15.8463C18.4259 15.8115 18.489 15.7876 18.5322 15.7801C18.6438 15.7555 18.7396 15.7663 18.812 15.8241C18.8912 15.8765 18.9464 15.9819 18.9831 16.1473C18.9871 16.1664 18.9944 16.2106 19.0104 16.2868C19.0211 16.3562 19.0351 16.4508 19.0538 16.5584C19.0718 16.672 19.0945 16.7986 19.1152 16.9436C19.136 17.0885 19.162 17.2403 19.1807 17.4036C19.2054 17.5676 19.2295 17.7378 19.2529 17.914C19.2763 18.0903 19.3003 18.2604 19.3177 18.436L19.3363 18.4319C19.3698 17.8962 19.426 17.4313 19.5161 17.0447C19.6061 16.658 19.7076 16.3346 19.8317 16.082C19.9564 15.8232 20.0925 15.6278 20.2406 15.4895C20.3887 15.3512 20.5428 15.2694 20.6983 15.2312C20.804 15.2059 20.9136 15.1997 21.0206 15.218C21.1276 15.2363 21.232 15.2791 21.3271 15.3519C21.4281 15.4253 21.514 15.528 21.5911 15.6545C21.6677 15.7872 21.7289 15.9491 21.7736 16.1526C21.7856 16.2098 21.8009 16.2921 21.8143 16.3929C21.8277 16.4936 21.8464 16.6011 21.8631 16.727C21.8798 16.8529 21.8958 16.9849 21.9172 17.1238C21.9386 17.2626 21.9546 17.3946 21.9766 17.5273C21.9987 17.6601 22.0154 17.786 22.0328 17.9057C22.0561 18.0262 22.0755 18.1276 22.0901 18.2161C22.1221 18.3685 22.1575 18.4903 22.1894 18.5869C22.2221 18.6774 22.2627 18.7502 22.3059 18.7985C22.3491 18.8468 22.3943 18.8767 22.4475 18.8889C22.5013 18.895 22.5618 18.8957 22.6303 18.8786C22.7299 18.8526 22.8309 18.8145 22.9332 18.764C23.0362 18.7074 23.1338 18.6441 23.2328 18.5684L23.3206 18.7086C23.2642 18.7828 23.1891 18.8611 23.1015 18.9443C23.0078 19.0267 22.9082 19.1084 22.8033 19.1834C22.6983 19.2583 22.594 19.3272 22.4851 19.383C22.3761 19.4389 22.2811 19.4778 22.1941 19.499C22.0884 19.5243 22.0047 19.5148 21.9309 19.4693C21.8571 19.4237 21.7972 19.3611 21.7467 19.2686C21.6961 19.1761 21.6535 19.0658 21.6128 18.9372C21.5782 18.8093 21.5389 18.6684 21.5069 18.516C21.4662 18.3316 21.4322 18.1417 21.3988 17.9457C21.3654 17.7497 21.3433 17.5612 21.3146 17.3781C21.2919 17.1957 21.2665 17.0378 21.2458 16.8929C21.2251 16.7479 21.2077 16.6281 21.1871 16.539C21.1331 16.3097 21.0532 16.1518 20.9475 16.0655C20.8358 15.9784 20.7121 15.9459 20.5752 15.98C20.4636 16.0046 20.3587 16.0795 20.2604 16.2048C20.1621 16.3301 20.0659 16.4929 19.9843 16.6883C19.9027 16.8837 19.8304 17.105 19.7662 17.3644C19.7085 17.6183 19.6616 17.8858 19.6305 18.1737C19.5995 18.4617 19.5864 18.7516 19.596 19.0566C19.5995 19.3608 19.6283 19.6555 19.681 19.9529L19.1004 20.1725L19.0512 20.1794C19.0231 19.9902 18.9971 19.7826 18.9603 19.5614C18.9236 19.3402 18.8876 19.1129 18.8515 18.8856C18.8095 18.6576 18.7734 18.4303 18.7307 18.2085C18.6887 17.9805 18.6507 17.7716 18.6166 17.5817C18.5833 17.3857 18.5472 17.2142 18.5152 17.0618C18.4706 16.9141 18.4472 16.7936 18.4266 16.7045Z" fill="#07143B"/>
<path d="M26.3449 14.9143C26.464 15.0456 26.5518 15.1857 26.6097 15.3225C26.667 15.4654 26.7056 15.6124 26.7257 15.7635C26.7451 15.9207 26.7465 16.0759 26.7234 16.2345C26.7009 16.3869 26.6605 16.5374 26.6021 16.6858C26.5444 16.8281 26.4687 16.9684 26.3765 17.0944C26.2842 17.2204 26.1753 17.3321 26.0551 17.4363C25.9355 17.5344 25.7993 17.6183 25.6525 17.6885C25.5064 17.7526 25.3502 17.7969 25.1841 17.8216C25.1409 17.8291 25.0984 17.8305 25.0558 17.8319C25.0133 17.8333 24.9708 17.8347 24.9282 17.8361C24.8591 17.8592 24.8014 17.8899 24.7495 17.9213C24.6971 17.9588 24.6506 17.9969 24.6154 18.0425C24.5802 18.0882 24.551 18.1345 24.5344 18.176C24.5172 18.2237 24.5125 18.2665 24.5139 18.3101C24.5226 18.3979 24.5698 18.4652 24.6423 18.523C24.7155 18.5747 24.8139 18.6168 24.9315 18.6487C25.0492 18.6806 25.1861 18.7023 25.3356 18.7192C25.4918 18.7307 25.6473 18.7482 25.8155 18.761C25.9657 18.7718 26.1152 18.7887 26.2594 18.7988C26.403 18.815 26.5465 18.8313 26.6768 18.8584C26.8131 18.8862 26.9367 18.9188 27.053 18.9629C27.1694 19.0071 27.2724 19.0621 27.3622 19.1281C27.452 19.194 27.5278 19.277 27.5837 19.3763C27.6396 19.4756 27.6815 19.592 27.6969 19.7302C27.721 19.9003 27.7085 20.0725 27.6661 20.2413C27.6296 20.4109 27.564 20.5709 27.4684 20.7275C27.3728 20.8841 27.2606 21.0264 27.1245 21.1661C26.9883 21.3057 26.8302 21.4243 26.6555 21.5285C26.4802 21.6389 26.2948 21.7296 26.0875 21.7992C25.8856 21.8756 25.6743 21.9261 25.453 21.9569C25.3241 21.9734 25.1898 21.983 25.0443 21.9851C24.8988 21.9873 24.7545 21.9772 24.6116 21.9549C24.4687 21.9325 24.3272 21.8979 24.1929 21.8517C24.0586 21.8055 23.9383 21.7423 23.8319 21.6621C23.7255 21.5819 23.6324 21.4907 23.5658 21.3778C23.4933 21.2642 23.4467 21.1349 23.4273 20.9777C23.4106 20.8518 23.4119 20.7279 23.4377 20.6006C23.4628 20.4794 23.5059 20.3603 23.5604 20.2486C23.6148 20.137 23.6865 20.0334 23.7641 19.9306C23.8418 19.8278 23.9301 19.7385 24.0238 19.6561C24.1174 19.5737 24.2164 19.498 24.314 19.4347C24.4117 19.3713 24.5147 19.3147 24.6097 19.2759L24.6116 19.2575C24.5352 19.2364 24.4594 19.2093 24.3843 19.176C24.3092 19.1427 24.2407 19.1039 24.1789 19.0598C24.1177 19.0094 24.0631 18.9537 24.0212 18.8931C23.98 18.8265 23.952 18.7489 23.9373 18.6604C23.924 18.5597 23.9339 18.4678 23.9677 18.3786C24.0015 18.2894 24.0526 18.2084 24.1144 18.1409C24.1768 18.0674 24.2445 18.0006 24.3229 17.9475C24.4019 17.8882 24.4737 17.8405 24.5514 17.7935C24.3919 17.7568 24.2529 17.6977 24.122 17.6209C23.991 17.5441 23.8799 17.451 23.7828 17.3408C23.6857 17.2306 23.6079 17.1102 23.5493 16.9795C23.4854 16.8421 23.4461 16.7012 23.4267 16.544C23.3939 16.2861 23.409 16.0335 23.4826 15.8C23.5502 15.5658 23.6577 15.3548 23.8051 15.1668C23.9519 14.985 24.1319 14.8317 24.3391 14.7063C24.5457 14.587 24.7782 14.5078 25.0181 14.4729C25.1105 14.4586 25.1955 14.4558 25.2799 14.4591C25.3584 14.4618 25.4361 14.4706 25.5013 14.4842C25.573 14.4923 25.6315 14.5113 25.69 14.5303C25.7485 14.5493 25.8077 14.5622 25.8542 14.5798C25.936 14.6077 26.0124 14.6287 26.0829 14.6491C26.1593 14.6701 26.2444 14.6673 26.3361 14.6591C26.4158 14.6495 26.4849 14.6263 26.5554 14.5909C26.6258 14.5554 26.6789 14.5118 26.7274 14.4553C26.7759 14.3987 26.807 14.3341 26.8336 14.2565C26.8601 14.1788 26.8627 14.0985 26.854 14.0107C26.8493 13.9978 26.8506 13.9855 26.846 13.9726C26.8473 13.9604 26.8426 13.9474 26.8386 13.9284L26.8725 13.895C27.0128 13.9419 27.1271 14.0044 27.2023 14.0935C27.2781 14.1765 27.3287 14.269 27.3367 14.3629C27.3467 14.4385 27.3395 14.5059 27.3203 14.5719C27.3017 14.6318 27.2652 14.6897 27.2174 14.7401C27.1696 14.7905 27.1111 14.8273 27.0407 14.8627C26.9709 14.8921 26.8899 14.9139 26.7975 14.9283C26.6626 14.944 26.5118 14.9394 26.3456 14.9082L26.3449 14.9143ZM24.9772 19.3484C24.8437 19.4077 24.7208 19.4806 24.6026 19.5665C24.4903 19.653 24.3947 19.7538 24.3097 19.8683C24.2307 19.9833 24.1683 20.1127 24.1292 20.2509C24.0901 20.3891 24.0862 20.5375 24.1056 20.6947C24.1337 20.8839 24.1949 21.0459 24.2907 21.1683C24.3918 21.2975 24.5142 21.3982 24.6578 21.4702C24.8014 21.5422 24.9596 21.5911 25.1271 21.6101C25.2946 21.629 25.4574 21.635 25.6116 21.609C25.8269 21.5775 26.0269 21.5195 26.2129 21.4227C26.3982 21.332 26.5563 21.2135 26.6864 21.0732C26.8166 20.9329 26.9175 20.783 26.9785 20.6101C27.0455 20.4379 27.0653 20.2541 27.0432 20.0656C27.0305 19.9587 26.9979 19.8682 26.9447 19.8002C26.8915 19.7322 26.825 19.675 26.7399 19.622C26.6601 19.5758 26.567 19.5405 26.4547 19.5154C26.3483 19.491 26.2294 19.4713 26.1044 19.451C25.9316 19.4253 25.7515 19.4111 25.5654 19.3963C25.372 19.393 25.1806 19.3714 24.9772 19.3484ZM25.344 17.4614C25.4483 17.4484 25.5427 17.4156 25.6204 17.3686C25.6981 17.3216 25.7712 17.2616 25.8276 17.1874C25.8834 17.1193 25.9345 17.0382 25.9683 16.9491C26.0021 16.8599 26.03 16.77 26.0465 16.6727C26.0631 16.5753 26.073 16.4834 26.0775 16.3847C26.0821 16.286 26.0741 16.1921 26.0654 16.1043C26.0527 15.9975 26.0286 15.8831 25.9914 15.7797C25.9607 15.6708 25.9181 15.5606 25.8682 15.4619C25.8183 15.3633 25.7557 15.2694 25.6859 15.1871C25.616 15.1048 25.5389 15.0341 25.4544 14.9749C25.37 14.9158 25.2776 14.8743 25.1719 14.8438C25.0715 14.82 24.9572 14.8133 24.8403 14.8311C24.73 14.8434 24.6296 14.8755 24.5453 14.928C24.4616 14.9743 24.3885 15.0343 24.3321 15.1085C24.2697 15.1821 24.2252 15.2577 24.1854 15.3462C24.1516 15.4354 24.1237 15.5252 24.1019 15.6158C24.086 15.707 24.0754 15.805 24.0715 15.8976C24.0676 15.9901 24.0756 16.0841 24.085 16.1658C24.0977 16.2726 24.1217 16.3869 24.1583 16.4965C24.195 16.606 24.2382 16.7101 24.2875 16.8149C24.3374 16.9136 24.4 17.0075 24.4691 17.0959C24.539 17.1782 24.6214 17.2557 24.7059 17.3149C24.7963 17.3747 24.8887 17.4161 24.9951 17.4406C25.1127 17.4725 25.2211 17.4785 25.344 17.4614Z" fill="#07143B"/>
<path d="M34.3092 16.8561C34.3935 16.692 34.4605 16.5198 34.4976 16.3441C34.5406 16.1692 34.5604 15.9854 34.5616 15.8057C34.5661 15.5954 34.5341 15.3871 34.4708 15.1878C34.4135 14.9891 34.3123 14.804 34.1793 14.6339C34.0477 14.6191 33.9407 14.6008 33.851 14.5906C33.7679 14.575 33.7087 14.5622 33.6795 14.5526C33.6389 14.5357 33.6044 14.5194 33.5877 14.5051C33.5718 14.4847 33.5625 14.4588 33.5591 14.4336C33.5617 14.4091 33.571 14.3792 33.5983 14.3512C33.6255 14.3233 33.6587 14.2961 33.6979 14.2695C33.7371 14.2429 33.7822 14.217 33.8268 14.1972C33.8719 14.1713 33.9158 14.1577 33.9536 14.1434C34.1477 14.1963 34.3159 14.2649 34.4516 14.3547C34.627 14.3559 34.7845 14.3551 34.936 14.3536C35.0876 14.3521 35.2338 14.3438 35.374 14.3349C35.5142 14.3259 35.6551 14.3108 35.7959 14.2957C35.9368 14.2807 36.0784 14.2595 36.2319 14.2396C36.2652 14.324 36.2825 14.388 36.2825 14.4438C36.2819 14.5057 36.258 14.5588 36.2175 14.5976C36.177 14.6365 36.1192 14.6671 36.0448 14.6835C35.9704 14.6999 35.884 14.715 35.7743 14.7212C35.6707 14.7281 35.5557 14.7275 35.4228 14.7248C35.3198 14.7256 35.2174 14.7202 35.1091 14.7142C35.0008 14.7082 34.8924 14.7021 34.7848 14.69C34.8367 14.7702 34.8826 14.8498 34.9159 14.9342C34.9498 15.0124 34.9711 15.0955 34.9872 15.1717C35.0032 15.2479 35.0198 15.318 35.0252 15.3806C35.0306 15.4432 35.0306 15.499 35.0313 15.5487C35.0282 15.8026 34.9825 16.0579 34.8943 16.3146C34.8068 16.5651 34.6827 16.8177 34.5287 17.0669C34.683 17.2084 34.8392 17.3315 34.9962 17.4484C35.1471 17.5647 35.294 17.6619 35.437 17.7401C35.5793 17.8244 35.7062 17.8821 35.8279 17.9331C35.9502 17.9779 36.0566 18.0023 36.1536 18.0009C36.2686 18.0015 36.3662 17.9939 36.4466 17.9782C36.527 17.9625 36.6081 17.9406 36.6898 17.9127L36.7671 18.1508C36.7033 18.1808 36.6269 18.2156 36.5385 18.249C36.4495 18.2886 36.3612 18.322 36.2602 18.3602C36.1599 18.3922 36.0535 18.4236 35.9426 18.4421C35.8369 18.4674 35.7273 18.4736 35.6303 18.475C35.5332 18.4765 35.4269 18.452 35.3099 18.414C35.1929 18.376 35.0659 18.3182 34.9343 18.2475C34.8033 18.1707 34.667 18.0871 34.5207 17.9838C34.3804 17.8811 34.2355 17.7655 34.0858 17.637C33.963 17.7657 33.8235 17.8802 33.6787 17.9878C33.5339 18.0955 33.3851 18.1841 33.2257 18.2591C33.0662 18.3341 32.9028 18.39 32.7347 18.433C32.5666 18.476 32.3951 18.4939 32.2257 18.4933C31.9658 18.4888 31.7226 18.4427 31.4899 18.3544C31.2632 18.2667 31.0598 18.1321 30.8895 17.9703C30.7199 17.8023 30.5842 17.6009 30.4883 17.3669C30.3931 17.1267 30.3431 16.8606 30.3442 16.5693C30.3486 16.3031 30.387 16.0594 30.458 15.8504C30.5296 15.6353 30.6291 15.4419 30.7506 15.2696C30.8721 15.0973 31.0162 14.94 31.1696 14.8085C31.3237 14.6709 31.4877 14.553 31.6571 14.4419C31.5459 14.1813 31.458 13.9295 31.3994 13.6873C31.3347 13.4443 31.3053 13.2116 31.3118 12.9829C31.3123 12.7535 31.36 12.5357 31.4422 12.3341C31.5305 12.1333 31.6466 11.9542 31.7894 11.8091C31.9388 11.6586 32.1029 11.5407 32.2936 11.4568C32.4842 11.373 32.6829 11.3272 32.8882 11.3318C33.0517 11.3317 33.194 11.3601 33.3276 11.4125C33.4552 11.4641 33.5689 11.5327 33.662 11.6239C33.7551 11.715 33.8223 11.8218 33.8696 11.945C33.9169 12.0681 33.9383 12.207 33.9404 12.356C33.9371 12.4983 33.908 12.6562 33.8536 12.8237C33.7993 12.9912 33.7084 13.1607 33.5922 13.3398C33.47 13.5182 33.3113 13.6987 33.1168 13.8752C32.9215 14.0577 32.6851 14.2294 32.4067 14.3964C32.5225 14.6141 32.6503 14.8332 32.79 15.0536C32.9297 15.274 33.088 15.4903 33.247 15.7005C33.412 15.9114 33.5776 16.1162 33.7566 16.31C33.9481 16.4991 34.1283 16.6807 34.3092 16.8561ZM31.8148 14.7202C31.7086 14.8074 31.6136 14.9021 31.5299 15.0042C31.4463 15.1064 31.3679 15.2153 31.3062 15.3386C31.2452 15.4557 31.1948 15.5864 31.161 15.7314C31.1279 15.8703 31.1054 16.0228 31.1062 16.1841C31.1044 16.4815 31.1431 16.7402 31.2343 16.9613C31.3202 17.1756 31.4393 17.3627 31.5816 17.5028C31.7299 17.6436 31.8882 17.7483 32.0743 17.8189C32.2605 17.8896 32.4446 17.9228 32.632 17.9254C32.7469 17.9259 32.8632 17.9143 32.9742 17.8958C33.0858 17.8712 33.1981 17.8405 33.3057 17.7969C33.4134 17.7532 33.5097 17.7021 33.6073 17.6387C33.705 17.5753 33.7907 17.5106 33.8777 17.4336C33.6855 17.2507 33.4946 17.0555 33.2991 16.8474C33.1102 16.6338 32.9219 16.4141 32.7417 16.1767C32.5607 15.9454 32.3991 15.7039 32.2374 15.4624C32.0704 15.2141 31.934 14.9631 31.8148 14.7202ZM32.2862 14.11C32.4669 14.0064 32.6197 13.881 32.7492 13.7468C32.8786 13.6126 32.9842 13.4757 33.0605 13.3293C33.1428 13.1836 33.2005 13.0413 33.2337 12.9024C33.2728 12.7642 33.2866 12.6356 33.2879 12.5117C33.2878 12.4001 33.2744 12.2994 33.2424 12.2027C33.2165 12.1068 33.1712 12.0211 33.118 11.953C33.0654 11.8789 32.9989 11.8218 32.9185 11.7817C32.838 11.7416 32.7556 11.7199 32.6586 11.7213C32.5257 11.7187 32.4074 11.7487 32.3164 11.8067C32.2254 11.8646 32.151 11.9368 32.092 12.0355C32.0335 12.1281 31.9918 12.235 31.9659 12.3623C31.9408 12.4835 31.9276 12.606 31.9257 12.736C31.9218 12.9402 31.9526 13.1607 32.0185 13.3914C32.0845 13.6221 32.1737 13.8616 32.2862 14.11Z" fill="#07143B"/>
<path d="M44.2518 11.3944C44.102 11.8859 43.9508 12.3897 43.8043 12.9065C43.6578 13.4232 43.5173 13.9406 43.3835 14.4525C43.2496 14.9645 43.1277 15.4778 43.0191 15.9802C42.9105 16.4826 42.8158 16.9679 42.7417 17.4308C42.7053 17.6561 42.6789 17.8454 42.6551 18.0101C42.6379 18.1694 42.6227 18.3103 42.6109 18.4206C42.605 18.5315 42.607 18.6248 42.6117 18.6935C42.6224 18.7629 42.6351 18.8139 42.6551 18.8534C42.681 18.8935 42.7083 18.9214 42.7422 18.9439C42.7767 18.9602 42.818 18.971 42.8711 18.9833C42.9662 19.0002 43.0632 18.9988 43.1788 18.9932C43.2891 18.9809 43.4068 18.957 43.525 18.9269L43.5557 19.0916C43.478 19.1386 43.3823 19.1836 43.2634 19.2198C43.1498 19.2628 43.0309 19.2989 42.9066 19.3283C42.7824 19.3577 42.6647 19.3816 42.5431 19.3864C42.4268 19.3981 42.3298 19.3995 42.2467 19.3839C42.1876 19.3711 42.1344 19.3589 42.0945 19.3357C42.0546 19.3126 42.0154 19.2834 41.9894 19.2433C41.9635 19.2031 41.9448 19.1514 41.9328 19.0943C41.9215 19.031 41.9175 18.9561 41.9154 18.8628C41.9166 18.739 41.9258 18.5974 41.937 18.4374C41.9542 18.2782 41.9726 18.1066 42.0051 17.918C42.0388 17.7172 42.0779 17.5232 42.1242 17.3176C42.1706 17.112 42.2283 16.9139 42.2979 16.7172L42.2747 16.7083C42.0583 17.0869 41.8406 17.422 41.6148 17.7189C41.3891 18.0159 41.1627 18.2631 40.9415 18.4613C40.7203 18.6596 40.5045 18.8088 40.2952 18.8968C40.0859 18.9847 39.9005 19.0196 39.7284 18.9877C39.5562 18.9559 39.412 18.89 39.3029 18.7784C39.1938 18.6669 39.1053 18.5329 39.0501 18.3716C38.9948 18.2103 38.9654 18.0334 38.9566 17.834C38.9478 17.6346 38.963 17.4378 38.9914 17.2302C39.0298 16.9865 39.0974 16.7523 39.1823 16.5263C39.2738 16.2948 39.3813 16.0837 39.5114 15.8876C39.6415 15.6915 39.7936 15.5164 39.9616 15.3618C40.1303 15.201 40.3076 15.0723 40.5003 14.97C40.6929 14.8678 40.8883 14.7968 41.0982 14.7585C41.3089 14.7141 41.5269 14.714 41.7409 14.7506C41.8957 14.7743 42.042 14.8218 42.1862 14.8877C42.3305 14.9536 42.4721 15.044 42.6111 15.1589C42.6773 14.8254 42.7382 14.485 42.8117 14.1399C42.8852 13.7947 42.9521 13.455 43.0289 13.1351C43.1005 12.8083 43.17 12.4999 43.2436 12.2106C43.3111 11.9206 43.3814 11.6619 43.4417 11.4393C43.453 11.3909 43.4749 11.3562 43.5087 11.3228C43.5426 11.2895 43.5752 11.2683 43.619 11.2547C43.6629 11.241 43.7061 11.2335 43.7552 11.2267C43.8037 11.226 43.8582 11.2259 43.9054 11.2375C44.0184 11.2564 44.1334 11.3128 44.2518 11.3944ZM42.5422 15.4054C42.3001 15.2354 42.0515 15.1267 41.7956 15.0854C41.6055 15.0515 41.4294 15.0564 41.262 15.0933C41.0945 15.1302 40.9431 15.1875 40.8002 15.2767C40.6581 15.3599 40.5252 15.4689 40.4084 15.5983C40.2915 15.7277 40.1853 15.8707 40.0957 16.028C40.0061 16.1853 39.9338 16.3508 39.8728 16.5237C39.8117 16.6966 39.768 16.8777 39.7429 17.0547C39.7303 17.1153 39.7224 17.1888 39.7191 17.2753C39.7106 17.3549 39.7073 17.4413 39.7094 17.5346C39.7121 17.6217 39.7201 17.7156 39.7348 17.8041C39.7495 17.8926 39.7708 17.9756 39.7995 18.047C39.8281 18.1185 39.8693 18.1852 39.9186 18.2341C39.9678 18.2831 40.0369 18.3157 40.114 18.3306C40.2509 18.3523 40.4051 18.3263 40.5659 18.2391C40.726 18.1579 40.89 18.0401 41.058 17.8854C41.2261 17.7308 41.3907 17.551 41.5461 17.3453C41.7074 17.1403 41.8521 16.921 41.9849 16.7004C42.1183 16.4736 42.2391 16.2517 42.336 16.027C42.4268 15.8016 42.4978 15.5926 42.5422 15.4054Z" fill="#07143B"/>
<path d="M46.9047 19.4205C46.916 19.4279 46.9267 19.4415 46.9433 19.4558C46.9599 19.4701 46.9765 19.4844 46.9865 19.5041C46.9972 19.5177 47.0071 19.5375 47.0171 19.5572C47.0271 19.5769 47.0258 19.5892 47.0245 19.6014C47.0238 19.6075 47.0165 19.6191 47.0099 19.6246C46.8631 19.7506 46.719 19.8521 46.5655 19.9278C46.418 20.0042 46.2659 20.0676 46.1164 20.1065C45.9669 20.1454 45.8194 20.1659 45.6745 20.162C45.5289 20.1641 45.3914 20.1486 45.2564 20.1085C45.0271 20.0454 44.8317 19.9489 44.6661 19.8C44.4998 19.6572 44.3674 19.481 44.2742 19.2782C44.1811 19.0755 44.1198 18.8577 44.0976 18.6134C44.0755 18.369 44.1019 18.124 44.1662 17.8646C44.2185 17.6597 44.2948 17.4575 44.389 17.2573C44.4886 17.0639 44.5994 16.878 44.7322 16.7132C44.865 16.5484 45.0144 16.3979 45.1738 16.267C45.3332 16.1362 45.5079 16.032 45.692 15.9536C45.876 15.8751 46.0693 15.8226 46.2714 15.802C46.4734 15.7814 46.6834 15.7989 46.8948 15.86C47.0363 15.8946 47.1633 15.9524 47.283 16.0217C47.402 16.0972 47.4958 16.1822 47.5763 16.2781C47.6567 16.374 47.7113 16.4856 47.7406 16.6067C47.77 16.7279 47.7681 16.8579 47.7356 16.9906C47.6839 17.1894 47.5764 17.3447 47.413 17.4564C47.2496 17.5682 47.0469 17.6507 46.7998 17.6972C46.5526 17.7436 46.2668 17.7548 45.9531 17.7441C45.6401 17.7273 45.2992 17.6888 44.9422 17.6299L44.931 17.6782C44.868 17.9253 44.8423 18.1642 44.8491 18.382C44.8612 18.6066 44.9006 18.8033 44.9725 18.9789C45.0444 19.1544 45.1435 19.302 45.2699 19.4217C45.3962 19.5414 45.5445 19.6264 45.7093 19.6698C45.8802 19.7139 46.0676 19.7165 46.2656 19.6769C46.455 19.6611 46.6709 19.5677 46.9047 19.4205ZM46.96 16.9402C46.9819 16.8496 46.9911 16.7639 46.9764 16.6754C46.9677 16.5876 46.9458 16.5107 46.9045 16.444C46.8699 16.3719 46.816 16.31 46.7548 16.2597C46.6937 16.2094 46.6192 16.1699 46.5368 16.1482C46.4131 16.1157 46.2988 16.109 46.1819 16.1267C46.0709 16.1452 45.9639 16.1827 45.867 16.24C45.77 16.2972 45.6776 16.3674 45.59 16.4505C45.5023 16.5336 45.4253 16.6303 45.3536 16.7338C45.2819 16.8373 45.2215 16.9483 45.1611 17.0593C45.1067 17.171 45.0583 17.2833 45.0158 17.3964C45.289 17.4458 45.5396 17.4803 45.7629 17.487C45.9922 17.4943 46.1875 17.4792 46.3483 17.4477C46.5158 17.4108 46.6493 17.3515 46.7549 17.2704C46.8552 17.1826 46.9216 17.0722 46.96 16.9402Z" fill="#07143B"/>
<path d="M51.1873 13.3315C51.0447 13.6441 50.9014 13.9627 50.7567 14.2936C50.6128 14.6184 50.4675 14.9554 50.3222 15.2925C50.1829 15.6302 50.0376 15.9672 49.8976 16.311C49.7576 16.6549 49.6243 16.9932 49.4917 17.3255C49.365 17.6584 49.2389 17.9852 49.1249 18.3134C49.0115 18.6354 48.9047 18.952 48.8059 19.2509C48.7429 19.4422 48.6952 19.6042 48.6568 19.7363C48.6176 19.8745 48.5931 19.9895 48.5706 20.0862C48.5541 20.1835 48.5395 20.2625 48.5389 20.3245C48.5383 20.3864 48.545 20.4368 48.5649 20.4762C48.5789 20.515 48.6055 20.549 48.6394 20.5714C48.6733 20.5939 48.7139 20.6109 48.7604 20.6285C48.8482 20.657 48.9492 20.6747 49.0628 20.6875C49.1772 20.6942 49.2928 20.6887 49.4151 20.6777L49.4212 20.8458C49.3388 20.8799 49.2331 20.9052 49.1155 20.9291C48.9979 20.953 48.875 20.9701 48.7467 20.9804C48.6185 20.9907 48.4975 20.9895 48.3832 20.9828C48.2689 20.976 48.1672 20.9645 48.0914 20.9374C47.9924 20.9014 47.9192 20.8497 47.8787 20.7769C47.8381 20.7041 47.818 20.6088 47.8259 20.4795C47.8338 20.3502 47.8629 20.1923 47.914 19.9996C47.965 19.8069 48.0386 19.5734 48.1228 19.2977C48.1519 19.1956 48.203 19.0587 48.2647 18.8797C48.327 18.6945 48.404 18.4862 48.4908 18.2417C48.577 18.0034 48.6785 17.7359 48.782 17.4499C48.8854 17.164 48.9962 16.8664 49.1076 16.5628C49.2191 16.2591 49.3371 15.95 49.4552 15.6409C49.5732 15.3318 49.6847 15.0282 49.7941 14.7429C49.9042 14.4515 50.0123 14.1785 50.1065 13.9225C50.2067 13.6672 50.2916 13.4412 50.3672 13.2451C50.3844 13.1974 50.4063 13.1627 50.4449 13.1422C50.4781 13.115 50.5219 13.1013 50.5651 13.0938C50.6083 13.0863 50.6568 13.0856 50.7106 13.0917C50.7645 13.0977 50.8117 13.1093 50.8582 13.1269C50.9759 13.1588 51.0829 13.2329 51.1873 13.3315Z" fill="#07143B"/>
<path d="M52.3805 16.418C52.3167 16.3922 52.2662 16.3555 52.2223 16.3133C52.185 16.2657 52.1544 16.2126 52.1364 16.1548C52.1185 16.0969 52.1131 16.0343 52.1137 15.9724C52.115 15.9043 52.1276 15.8437 52.1521 15.7845C52.1853 15.7014 52.2231 15.6313 52.2769 15.5816C52.3314 15.5257 52.3838 15.4882 52.4476 15.4583C52.5114 15.4283 52.5672 15.416 52.6277 15.4166C52.6881 15.4172 52.748 15.424 52.7945 15.4416C52.8583 15.4674 52.9095 15.498 52.9468 15.5457C52.9907 15.5878 53.0159 15.6341 53.0399 15.6926C53.0579 15.7504 53.0699 15.8076 53.0693 15.8695C53.0687 15.9315 53.0561 15.9921 53.0375 16.052C53.0123 16.1173 52.9751 16.1813 52.9327 16.2386C52.8842 16.2951 52.837 16.3394 52.7726 16.3755C52.7141 16.4123 52.651 16.4362 52.5832 16.4471C52.5161 16.4519 52.4503 16.4445 52.3805 16.418ZM52.1489 17.7808C52.0368 17.979 51.9299 18.1839 51.8284 18.3957C51.7276 18.6013 51.6333 18.8015 51.5398 18.9956C51.4522 19.1903 51.3713 19.3796 51.2976 19.5573C51.224 19.735 51.1643 19.8956 51.1066 20.0379C51.031 20.234 50.9766 20.4015 50.9249 20.5445C50.8791 20.6881 50.842 20.808 50.8195 20.9046C50.7963 21.0074 50.7817 21.0864 50.7804 21.1545C50.7798 21.2164 50.7858 21.2729 50.7998 21.3117C50.8198 21.3511 50.8464 21.3851 50.8743 21.4069C50.9082 21.4293 50.9481 21.4524 51.0007 21.4708C51.0877 21.5054 51.1881 21.5292 51.2958 21.5413C51.4094 21.5542 51.5244 21.5548 51.646 21.5499L51.6461 21.7173C51.5584 21.7446 51.4588 21.7706 51.3358 21.7877C51.2189 21.8055 51.0906 21.8158 50.963 21.82C50.8354 21.8242 50.7151 21.8168 50.5955 21.8032C50.4819 21.7904 50.3808 21.7728 50.3057 21.7395C50.2532 21.7212 50.2073 21.6974 50.1741 21.6688C50.1342 21.6457 50.1016 21.611 50.0829 21.5593C50.0636 21.5137 50.0523 21.4504 50.0483 21.3755C50.0442 21.3007 50.0608 21.2033 50.0799 21.0815C50.1051 20.9603 50.1449 20.816 50.1999 20.6424C50.2549 20.4688 50.3252 20.2659 50.4181 20.0221C50.4698 19.8792 50.5288 19.7246 50.5965 19.5462C50.6641 19.3679 50.7451 19.1786 50.8207 18.9825C50.903 18.781 50.9925 18.5678 51.0827 18.3486C51.1796 18.1239 51.2765 17.8993 51.3806 17.663C51.4045 17.6099 51.4324 17.5758 51.4709 17.5554C51.5101 17.5288 51.548 17.5145 51.5845 17.5124C51.6277 17.5049 51.6696 17.5096 51.7048 17.5198C51.746 17.5307 51.7872 17.5415 51.8165 17.551C51.9554 17.6101 52.0625 17.6842 52.1489 17.7808Z" fill="#07143B"/>
<path d="M55.2259 20.4104C55.3188 20.3341 55.3952 20.2435 55.4363 20.1428C55.4682 20.072 55.4881 19.9998 55.49 19.9256C55.4979 19.8521 55.4879 19.7766 55.4586 19.7112C55.43 19.6398 55.3887 19.5731 55.3289 19.5105C55.269 19.448 55.1959 19.3963 55.0981 19.348C54.9599 19.2828 54.8243 19.2489 54.6913 19.2463C54.5584 19.2436 54.4289 19.2662 54.3026 19.3139C54.1824 19.3624 54.0601 19.4292 53.9479 19.5157C53.8356 19.6022 53.734 19.7024 53.6311 19.8148C53.5342 19.9278 53.4485 20.0483 53.3676 20.1818C53.2872 20.3092 53.2189 20.4379 53.1565 20.5672C53.0523 20.8035 52.9794 21.0309 52.9556 21.2514C52.9319 21.472 52.9347 21.6707 52.9754 21.8551C53.016 22.0396 53.0839 22.1961 53.1897 22.3382C53.2895 22.4797 53.4178 22.581 53.5734 22.6544C53.735 22.7285 53.9184 22.7678 54.1191 22.7595C54.3258 22.7519 54.5504 22.6904 54.7935 22.5691C54.8041 22.5827 54.8088 22.5956 54.8248 22.616C54.8407 22.6364 54.8514 22.65 54.8554 22.6691C54.8654 22.6888 54.8694 22.7079 54.8734 22.7269C54.8774 22.746 54.876 22.7582 54.8747 22.7705C54.8741 22.7766 54.8674 22.7821 54.8674 22.7821L54.8541 22.793C54.5539 22.9947 54.2509 23.1092 53.9453 23.1367C53.6396 23.1642 53.3431 23.1059 53.0546 22.974C52.8991 22.9007 52.7634 22.8109 52.6543 22.6994C52.5446 22.594 52.4482 22.4777 52.3776 22.3457C52.3071 22.2137 52.2551 22.0776 52.2225 21.9313C52.1898 21.785 52.1757 21.6345 52.1803 21.48C52.1848 21.3255 52.2073 21.173 52.2417 21.0219C52.2762 20.8708 52.3286 20.7217 52.3923 20.5801C52.4792 20.3915 52.584 20.2049 52.7115 20.0333C52.839 19.8616 52.9831 19.7043 53.1431 19.5674C53.3039 19.4243 53.4739 19.3071 53.6539 19.2096C53.8406 19.1067 54.024 19.0344 54.2226 18.9887C54.4213 18.9429 54.6167 18.9278 54.8207 18.9446C55.0247 18.9615 55.2188 19.0144 55.4143 19.1109C55.5579 19.183 55.6882 19.2659 55.7993 19.3591C55.9097 19.4584 55.9955 19.5611 56.0567 19.6672C56.1172 19.7795 56.1539 19.889 56.1653 20.0081C56.1766 20.1272 56.1581 20.2429 56.1037 20.3546C56.0712 20.4315 56.0287 20.4888 55.9809 20.5392C55.9338 20.5834 55.8813 20.6209 55.8182 20.6448C55.7617 20.6632 55.6999 20.6748 55.6341 20.6674C55.5743 20.6606 55.5091 20.6471 55.446 20.6151C55.4054 20.5981 55.3655 20.575 55.3263 20.5458C55.2871 20.5166 55.2545 20.4819 55.2219 20.4472L55.2259 20.4104Z" fill="#07143B"/>
<path d="M58.5173 19.3624C58.4602 19.3312 58.4103 19.2883 58.3797 19.2353C58.3491 19.1822 58.3251 19.1237 58.3191 19.0672C58.3077 19.0039 58.3084 18.942 58.3209 18.8814C58.3342 18.8147 58.3527 18.7548 58.3826 18.7023C58.4271 18.6267 58.4762 18.5641 58.536 18.515C58.5958 18.466 58.6536 18.4353 58.722 18.4182C58.7844 18.4005 58.8456 18.395 58.9054 18.4018C58.9652 18.4085 59.0237 18.4275 59.0696 18.4513C59.1268 18.4826 59.1766 18.5254 59.2079 18.5724C59.2452 18.62 59.2638 18.6717 59.2758 18.7289C59.2878 18.786 59.2872 18.848 59.2806 18.9092C59.274 18.9705 59.2554 19.0304 59.2189 19.0883C59.1884 19.1468 59.1399 19.2034 59.0861 19.2531C59.0323 19.3028 58.9739 19.3396 58.9108 19.3635C58.847 19.3935 58.7852 19.4051 58.7128 19.4031C58.6443 19.4202 58.5798 19.4005 58.5173 19.3624ZM58.091 20.6784C57.9502 20.861 57.8208 21.051 57.686 21.2342C57.5566 21.4242 57.4338 21.6087 57.3176 21.7878C57.2014 21.9669 57.0979 22.1412 56.9957 22.3033C56.8994 22.4661 56.8165 22.6179 56.7415 22.752C56.6433 22.9332 56.5596 23.0911 56.4906 23.226C56.4276 23.3615 56.3732 23.4731 56.3387 23.5685C56.3042 23.6638 56.277 23.7475 56.2644 23.8081C56.2519 23.8687 56.2519 23.9245 56.2652 23.9694C56.2785 24.0143 56.2992 24.0476 56.3264 24.0755C56.3597 24.1041 56.3929 24.1327 56.4388 24.1564C56.5186 24.2027 56.617 24.2448 56.7233 24.2692C56.835 24.3004 56.948 24.3194 57.0743 24.3275L57.0505 24.4922C56.9641 24.5072 56.8544 24.5134 56.7335 24.5122C56.6125 24.5109 56.4863 24.5028 56.3606 24.4887C56.235 24.4745 56.1167 24.4487 55.9984 24.4229C55.8861 24.3978 55.793 24.3625 55.7192 24.3169C55.674 24.287 55.6288 24.2571 55.5955 24.2286C55.5623 24.2 55.5363 24.1599 55.5177 24.1082C55.505 24.0571 55.4997 23.9945 55.5076 23.921C55.5155 23.8475 55.544 23.7515 55.5805 23.6378C55.6229 23.5248 55.6806 23.3825 55.7583 23.2238C55.8366 23.059 55.9361 22.8657 56.0569 22.6437C56.1252 22.515 56.2082 22.3631 56.3044 22.2004C56.4007 22.0376 56.4982 21.8626 56.6091 21.6767C56.7199 21.4908 56.8321 21.2927 56.9569 21.0898C57.0823 20.8807 57.2138 20.6723 57.3465 20.4517C57.3757 20.4054 57.4096 20.372 57.4475 20.3577C57.486 20.3372 57.5292 20.3297 57.5711 20.3345C57.6136 20.3331 57.6548 20.3439 57.6894 20.3602C57.7299 20.3772 57.7645 20.3935 57.7991 20.4098C57.9247 20.4798 58.0185 20.5648 58.091 20.6784Z" fill="#07143B"/>
<path d="M58.018 23.4916C58.1269 23.324 58.259 23.1654 58.4084 23.0148C58.5578 22.8643 58.7172 22.7335 58.8926 22.6231C59.0686 22.5065 59.248 22.4152 59.444 22.3381C59.6393 22.2672 59.832 22.2208 60.0334 22.2063C60.2347 22.1919 60.4328 22.2081 60.6275 22.2549C60.8283 22.3024 61.0184 22.392 61.1979 22.5239C61.406 22.6715 61.557 22.8436 61.6569 23.0409C61.756 23.2443 61.812 23.4553 61.8241 23.6799C61.8363 23.9045 61.8065 24.1243 61.7336 24.3517C61.6666 24.5798 61.5651 24.7915 61.435 24.9877C61.3262 25.1552 61.194 25.3139 61.0446 25.4644C60.8952 25.615 60.7358 25.7458 60.5538 25.8616C60.3778 25.9782 60.1984 26.0695 60.0031 26.1404C59.8137 26.212 59.615 26.2578 59.4197 26.2729C59.2243 26.2881 59.0203 26.2712 58.8255 26.2244C58.6248 26.1769 58.4346 26.0872 58.2551 25.9553C58.047 25.8078 57.896 25.6357 57.7962 25.4384C57.697 25.2349 57.641 25.024 57.6342 24.8062C57.6281 24.5823 57.6578 24.3624 57.7248 24.1343C57.7864 23.8995 57.8879 23.6877 58.018 23.4916ZM58.7565 23.6618C58.6835 23.7776 58.6104 23.8934 58.5541 24.0234C58.4917 24.1528 58.4473 24.2842 58.4088 24.4163C58.3704 24.5483 58.3499 24.6824 58.336 24.8111C58.3281 24.9404 58.3329 25.065 58.3622 25.1861C58.3855 25.3066 58.4341 25.4175 58.496 25.5175C58.5579 25.6175 58.645 25.7079 58.7514 25.7882C58.8698 25.8697 58.9914 25.9207 59.1117 25.9281C59.238 25.9362 59.3603 25.9252 59.4858 25.8836C59.6114 25.8419 59.727 25.7806 59.8446 25.7009C59.9621 25.6211 60.075 25.5285 60.1766 25.4283C60.2842 25.3289 60.3805 25.222 60.4648 25.1137C60.5551 25.0061 60.6328 24.9032 60.6979 24.8052C60.7769 24.6901 60.8439 24.5736 60.9003 24.4436C60.9627 24.3142 61.0124 24.1896 61.0449 24.0569C61.0833 23.9248 61.1038 23.7907 61.1117 23.6614C61.1256 23.5327 61.1148 23.4075 61.0855 23.2864C61.0622 23.1659 61.0136 23.055 60.9517 22.955C60.8898 22.855 60.8027 22.7645 60.6956 22.6904C60.5773 22.6088 60.4556 22.5579 60.3294 22.5498C60.2037 22.5356 60.0808 22.5527 59.9612 22.595C59.8416 22.6373 59.7201 22.698 59.6025 22.7777C59.4849 22.8574 59.378 22.9508 59.2704 23.0502C59.1688 23.1504 59.0665 23.2566 58.9762 23.3642C58.8932 23.4603 58.8156 23.5631 58.7565 23.6618Z" fill="#07143B"/>
<path d="M64.0019 25.4948C63.9123 25.5963 63.8107 25.6964 63.7018 25.8081C63.5935 25.9137 63.4787 26.0248 63.3644 26.1297C63.2495 26.2407 63.1353 26.3456 63.0144 26.456C62.9002 26.5609 62.792 26.6664 62.685 26.7598C62.5841 26.8538 62.4891 26.9485 62.4021 27.0254C62.3205 27.1092 62.2467 27.1753 62.1976 27.238C62.0396 27.4123 61.956 27.5703 61.9468 27.7119C61.9376 27.8535 61.9908 27.9773 62.0952 28.0759C62.2163 28.1888 62.4044 28.2411 62.6536 28.232C62.9034 28.2169 63.2031 28.1329 63.5579 27.987C63.9067 27.8404 64.2674 27.6393 64.6447 27.3967C65.0166 27.1473 65.3879 26.8482 65.7465 26.4981L66.2572 26.872L66.2898 26.9067C66.149 27.0334 66.0069 27.1724 65.8521 27.3161C65.7034 27.4605 65.548 27.6104 65.3986 27.7609C65.2491 27.9115 65.1064 28.0565 64.9636 28.2016C64.8208 28.3467 64.6973 28.4816 64.5804 28.611C64.3607 28.8528 64.1993 29.0578 64.0891 29.2376C63.9789 29.4173 63.9079 29.5705 63.8702 29.6965C63.8324 29.8224 63.8265 29.9334 63.8538 30.0171C63.8811 30.1008 63.9217 30.1736 63.9769 30.2232C64.0101 30.2518 64.0494 30.281 64.0833 30.3034C64.1232 30.3266 64.1637 30.3435 64.2043 30.3605C64.2455 30.3714 64.2867 30.3822 64.3219 30.3924C64.3572 30.4026 64.393 30.4067 64.4229 30.4101L64.4045 30.5816C64.3254 30.5851 64.235 30.581 64.1513 30.5716C64.0615 30.5614 63.9791 30.5397 63.8914 30.5112C63.8036 30.4827 63.7225 30.4487 63.6427 30.4025C63.563 30.3563 63.4898 30.3046 63.424 30.2414C63.3415 30.1638 63.273 30.0693 63.2244 29.9584C63.1751 29.8536 63.1584 29.7277 63.173 29.5929C63.1815 29.4574 63.2286 29.3015 63.3128 29.1374C63.3971 28.9733 63.5259 28.7895 63.7045 28.5926C63.7596 28.5306 63.8207 28.4693 63.8825 28.4019C63.9436 28.3406 64.0113 28.2738 64.0791 28.2071C64.1528 28.141 64.2272 28.0688 64.3075 27.9973C64.3945 27.9203 64.4875 27.844 64.5938 27.7568L64.5725 27.7296C64.1427 28.0097 63.7574 28.2141 63.4153 28.3553C63.0731 28.4965 62.7788 28.5872 62.5143 28.6255C62.2558 28.6645 62.0385 28.6586 61.8557 28.6131C61.6729 28.5677 61.53 28.4895 61.4202 28.3841C61.3378 28.3066 61.2746 28.2188 61.2253 28.114C61.1754 28.0154 61.1507 27.9072 61.152 27.7833C61.1532 27.6594 61.1857 27.5267 61.2427 27.3905C61.3064 27.2489 61.4073 27.099 61.5514 26.9417C61.647 26.8409 61.7566 26.7231 61.8908 26.6018C62.0256 26.4744 62.167 26.3416 62.3211 26.204C62.4759 26.0602 62.6306 25.9165 62.7926 25.7612C62.9547 25.6059 63.1047 25.4492 63.2488 25.2919C63.3106 25.2244 63.3531 25.1672 63.3949 25.1162C63.4308 25.0644 63.46 25.0181 63.4712 24.9698C63.4818 24.9276 63.4865 24.8847 63.4671 24.8391C63.4532 24.8003 63.4219 24.7534 63.372 24.7105C63.3228 24.6615 63.2497 24.6099 63.1592 24.5501C63.0688 24.4902 62.9658 24.4352 62.8567 24.3794L62.9682 24.1874C63.1245 24.2547 63.2687 24.3206 63.395 24.3845C63.5273 24.449 63.6423 24.5054 63.7394 24.5598C63.8365 24.6142 63.9222 24.6611 63.9841 24.7053C64.0519 24.7501 64.0971 24.7801 64.1184 24.8073C64.1676 24.8562 64.2049 24.9038 64.2175 24.9549C64.2362 25.0066 64.2369 25.0563 64.2243 25.1169C64.2124 25.1713 64.1878 25.2306 64.1453 25.2878C64.1128 25.3647 64.0637 25.4274 64.0019 25.4948Z" fill="#07143B"/>
<path d="M65.3289 30.655C65.2207 30.7606 65.1417 30.8757 65.0986 30.9949C65.0555 31.114 65.0363 31.2358 65.041 31.3604C65.0464 31.4788 65.0698 31.5993 65.1184 31.7102C65.1663 31.8272 65.2216 31.9327 65.2967 32.0218C65.3659 32.1102 65.4371 32.1803 65.5209 32.2455C65.6053 32.3047 65.6911 32.3516 65.7848 32.3808C65.8725 32.4093 65.9629 32.4133 66.0553 32.399C66.1476 32.3846 66.23 32.3505 66.3097 32.2851C66.3894 32.2197 66.4465 32.1393 66.4797 32.0563C66.5135 31.9671 66.5241 31.869 66.5293 31.7642C66.5286 31.6587 66.5172 31.5396 66.4938 31.4192C66.4705 31.2987 66.4478 31.1721 66.4198 31.0387C66.3958 30.9244 66.3658 30.8094 66.3418 30.6951C66.3178 30.5808 66.3004 30.461 66.2824 30.3473C66.2703 30.2344 66.2589 30.1152 66.2648 30.0043C66.2648 29.8927 66.2826 29.7831 66.3058 29.6803C66.335 29.5782 66.3761 29.4774 66.4345 29.3848C66.4929 29.2922 66.5753 29.2023 66.6742 29.1266C66.7805 29.0394 66.8954 28.9842 67.0143 28.948C67.1333 28.9119 67.2496 28.9002 67.3699 28.9076C67.4902 28.915 67.6144 28.9415 67.7314 28.9795C67.8538 29.0243 67.9688 29.0807 68.0765 29.1487C68.1902 29.2173 68.2906 29.2969 68.3903 29.3826C68.4894 29.4744 68.5765 29.5648 68.6504 29.6662C68.7455 29.7948 68.8227 29.9213 68.8806 30.0581C68.9385 30.1948 68.9792 30.3234 68.9899 30.4487C69.0066 30.5746 68.9941 30.691 68.9583 30.7985C68.9225 30.9061 68.8581 30.9981 68.7651 31.0744C68.7319 31.1016 68.6867 31.1275 68.6362 31.1466C68.5857 31.1657 68.5299 31.178 68.4694 31.1774C68.4089 31.1767 68.3504 31.1577 68.2866 31.1319C68.2235 31.1 68.1676 31.0564 68.1091 30.9816C68.0559 30.9136 68.0153 30.8408 67.9767 30.7496L67.9913 30.7265C68.0597 30.7094 68.1162 30.691 68.1613 30.6651C68.2125 30.6399 68.2517 30.6133 68.2849 30.586C68.352 30.5254 68.4011 30.4627 68.4216 30.3844C68.4415 30.3123 68.4501 30.2326 68.4401 30.1571C68.4301 30.0816 68.4087 29.9985 68.3681 29.9258C68.3342 29.8475 68.2929 29.7808 68.2391 29.7189C68.1546 29.604 68.0608 29.519 67.9651 29.4523C67.8693 29.3857 67.7709 29.3436 67.6765 29.3205C67.5821 29.2974 67.4918 29.2934 67.4047 29.3146C67.3183 29.3297 67.2413 29.3705 67.1755 29.4189C67.0892 29.4898 67.0321 29.5701 66.9969 29.6716C66.9678 29.7737 66.9499 29.8833 66.9493 30.001C66.9547 30.1195 66.9648 30.2508 66.9922 30.3903C67.0195 30.5298 67.0469 30.6694 67.0789 30.8218C67.1155 30.9872 67.1462 31.1518 67.1769 31.3165C67.2076 31.4812 67.2204 31.6439 67.2165 31.7923C67.212 31.9468 67.1842 32.0925 67.1271 32.2286C67.076 32.3655 66.9844 32.4853 66.8516 32.5943C66.6928 32.719 66.5268 32.7995 66.3427 32.8221C66.1639 32.8515 65.9898 32.838 65.8137 32.7871C65.6375 32.7362 65.4653 32.6485 65.3031 32.5248C65.1402 32.4072 64.9925 32.2602 64.8648 32.097C64.801 32.0154 64.7384 31.9215 64.6825 31.8221C64.6266 31.7228 64.5767 31.6242 64.5394 31.5207C64.5021 31.4173 64.4708 31.3146 64.4461 31.2064C64.4268 31.105 64.4194 31.0049 64.4173 30.9117C64.4213 30.8191 64.4425 30.7347 64.4756 30.6516C64.5081 30.5747 64.5639 30.5066 64.6303 30.4521C64.6901 30.403 64.7539 30.373 64.809 30.3668C64.8702 30.3614 64.93 30.3681 64.9885 30.3871C65.047 30.4061 65.1035 30.4435 65.154 30.4802C65.2099 30.5238 65.2591 30.5727 65.3017 30.6272L65.3289 30.655Z" fill="#07143B"/>
<path d="M34.9993 62.3325C58.8423 61.9257 79.4417 59.713 64.7279 48.5202C77.9192 60.1999 51.1755 61.371 34.9993 62.3325Z" fill="#D40000"/>
</g>
<defs>
<linearGradient id="paint0_linear_42_273" x1="56.708" y1="34.0315" x2="55.1283" y2="34.1049" gradientUnits="userSpaceOnUse">
<stop stop-color="#F2F0EB"/>
<stop offset="1" stop-color="white"/>
</linearGradient>
<linearGradient id="paint1_linear_42_273" x1="48.2443" y1="31.8291" x2="48.2236" y2="32.0471" gradientUnits="userSpaceOnUse">
<stop stop-color="#FEEF9D"/>
<stop offset="1" stop-color="#F5B136"/>
</linearGradient>
<linearGradient id="paint2_linear_42_273" x1="49.4647" y1="32.071" x2="49.433" y2="32.2195" gradientUnits="userSpaceOnUse">
<stop stop-color="#FEEF9D"/>
<stop offset="1" stop-color="#F5B238"/>
</linearGradient>
<linearGradient id="paint3_linear_42_273" x1="46.6089" y1="28.1521" x2="46.5994" y2="28.2652" gradientUnits="userSpaceOnUse">
<stop stop-color="#FEDE79"/>
<stop offset="1" stop-color="#FABB08"/>
</linearGradient>
<linearGradient id="paint4_linear_42_273" x1="48.1466" y1="29.8578" x2="47.7806" y2="30.1631" gradientUnits="userSpaceOnUse">
<stop stop-color="#FFF7BC"/>
<stop offset="1" stop-color="#F6C86D"/>
</linearGradient>
<linearGradient id="paint5_linear_42_273" x1="46.5298" y1="32.6744" x2="46.768" y2="32.3975" gradientUnits="userSpaceOnUse">
<stop stop-color="#E07100"/>
<stop offset="1" stop-color="#FEE894"/>
</linearGradient>
<linearGradient id="paint6_linear_42_273" x1="48.6951" y1="28.3179" x2="48.4359" y2="28.1671" gradientUnits="userSpaceOnUse">
<stop stop-color="#FEEC98"/>
<stop offset="1" stop-color="#FFED83"/>
</linearGradient>
<linearGradient id="paint7_linear_42_273" x1="47.7324" y1="29.1388" x2="47.7312" y2="29.1769" gradientUnits="userSpaceOnUse">
<stop stop-color="#FCCD4B"/>
<stop offset="1" stop-color="#FEE03F"/>
</linearGradient>
<linearGradient id="paint8_linear_42_273" x1="40.3227" y1="31.5609" x2="40.2699" y2="31.7294" gradientUnits="userSpaceOnUse">
<stop stop-color="#CA5B00"/>
<stop offset="0.3054" stop-color="#DE6C00"/>
<stop offset="0.874" stop-color="#F69A03"/>
<stop offset="1" stop-color="#FCC520"/>
</linearGradient>
<linearGradient id="paint9_linear_42_273" x1="38.0979" y1="32.6998" x2="38.9015" y2="32.5479" gradientUnits="userSpaceOnUse">
<stop stop-color="#E9A029"/>
<stop offset="1" stop-color="#FEBC33"/>
</linearGradient>
<radialGradient id="paint10_radial_42_273" cx="0" cy="0" r="1" gradientUnits="userSpaceOnUse" gradientTransform="translate(38.3841 33.2033) rotate(-11.5851) scale(0.969208 0.219034)">
<stop stop-color="#FCF196"/>
<stop offset="1" stop-color="#FEB836"/>
</radialGradient>
<linearGradient id="paint11_linear_42_273" x1="42.9533" y1="33.2851" x2="43.2691" y2="33.1435" gradientUnits="userSpaceOnUse">
<stop stop-color="#FEC247"/>
<stop offset="1" stop-color="#E17100"/>
</linearGradient>
<radialGradient id="paint12_radial_42_273" cx="0" cy="0" r="1" gradientUnits="userSpaceOnUse" gradientTransform="translate(37.9045 31.1483) rotate(-32.3637) scale(0.539851 0.206346)">
<stop stop-color="#CA5B00"/>
<stop offset="0.3054" stop-color="#DE6C00"/>
<stop offset="0.874" stop-color="#F69A03"/>
<stop offset="1" stop-color="#FCC520"/>
</radialGradient>
<linearGradient id="paint13_linear_42_273" x1="37.1828" y1="29.2802" x2="37.1318" y2="29.1691" gradientUnits="userSpaceOnUse">
<stop stop-color="#FE9E03"/>
<stop offset="1" stop-color="#FEC72C"/>
</linearGradient>
<linearGradient id="paint14_linear_42_273" x1="46.4312" y1="31.5089" x2="46.3008" y2="31.6729" gradientUnits="userSpaceOnUse">
<stop stop-color="#FFF381"/>
<stop offset="0.2272" stop-color="#F4CB63"/>
<stop offset="0.6654" stop-color="#F5B135"/>
<stop offset="0.7847" stop-color="#F39E17"/>
<stop offset="1" stop-color="#FEBE3D"/>
</linearGradient>
<linearGradient id="paint15_linear_42_273" x1="40.4091" y1="27.6247" x2="40.2601" y2="27.4066" gradientUnits="userSpaceOnUse">
<stop stop-color="#FBA603"/>
<stop offset="1" stop-color="#FFC522"/>
</linearGradient>
<linearGradient id="paint16_linear_42_273" x1="42.8812" y1="30.4759" x2="42.9469" y2="30.9272" gradientUnits="userSpaceOnUse">
<stop stop-color="#FF9A00"/>
<stop offset="1" stop-color="#FDBB2F"/>
</linearGradient>
<linearGradient id="paint17_linear_42_273" x1="38.3184" y1="30.0292" x2="39.0023" y2="30.0724" gradientUnits="userSpaceOnUse">
<stop stop-color="#F8DC81"/>
<stop offset="1" stop-color="#FDAF0D"/>
</linearGradient>
<linearGradient id="paint18_linear_42_273" x1="47.4653" y1="31.1015" x2="46.7649" y2="30.7902" gradientUnits="userSpaceOnUse">
<stop stop-color="#FDD05E"/>
<stop offset="1" stop-color="#FEEB92"/>
</linearGradient>
<radialGradient id="paint19_radial_42_273" cx="0" cy="0" r="1" gradientUnits="userSpaceOnUse" gradientTransform="translate(41.5266 29.6355) rotate(-117.796) scale(0.23358 0.686882)">
<stop stop-color="#F2AB25"/>
<stop offset="1" stop-color="#DC6800"/>
</radialGradient>
<linearGradient id="paint20_linear_42_273" x1="41.3113" y1="30.6027" x2="41.4961" y2="30.647" gradientUnits="userSpaceOnUse">
<stop stop-color="#A83D16"/>
<stop offset="1" stop-color="#E88E15"/>
</linearGradient>
<linearGradient id="paint21_linear_42_273" x1="15.8139" y1="27.8069" x2="18.4359" y2="28.2589" gradientUnits="userSpaceOnUse">
<stop stop-color="#DBD7C7"/>
<stop offset="1" stop-color="#C1BA9E"/>
</linearGradient>
<linearGradient id="paint22_linear_42_273" x1="41.2321" y1="45.7384" x2="42.8834" y2="46.8096" gradientUnits="userSpaceOnUse">
<stop stop-color="#D4D0BD"/>
<stop offset="1" stop-color="white"/>
</linearGradient>
<linearGradient id="paint23_linear_42_273" x1="38.09" y1="36.801" x2="38.0845" y2="39.6299" gradientUnits="userSpaceOnUse">
<stop stop-color="#DFDCCE"/>
<stop offset="1" stop-color="#F1EFE9"/>
</linearGradient>
<linearGradient id="paint24_linear_42_273" x1="15.6025" y1="27.9512" x2="18.2245" y2="28.4033" gradientUnits="userSpaceOnUse">
<stop stop-color="#DBD7C7"/>
<stop offset="1" stop-color="#E6E3D8"/>
</linearGradient>
<linearGradient id="paint25_linear_42_273" x1="37.7671" y1="61.6338" x2="36.6914" y2="56.6567" gradientUnits="userSpaceOnUse">
<stop stop-color="#D4D0BD"/>
<stop offset="0.1276" stop-color="#D9D5C5"/>
<stop offset="1" stop-color="white"/>
</linearGradient>
<linearGradient id="paint26_linear_42_273" x1="32.4429" y1="59.1247" x2="31.9784" y2="56.4579" gradientUnits="userSpaceOnUse">
<stop stop-color="#D40000"/>
<stop offset="1" stop-color="#DA847E"/>
</linearGradient>
<linearGradient id="paint27_linear_42_273" x1="40.1833" y1="46.7866" x2="40.3221" y2="46.7776" gradientUnits="userSpaceOnUse">
<stop stop-color="#800000"/>
<stop offset="1" stop-color="#DF5F5F"/>
</linearGradient>
<linearGradient id="paint28_linear_42_273" x1="59.0701" y1="36.6407" x2="59.1096" y2="40.6618" gradientUnits="userSpaceOnUse">
<stop stop-color="#800000"/>
<stop offset="1" stop-color="#DF5F5F"/>
</linearGradient>
<linearGradient id="paint29_linear_42_273" x1="60.4319" y1="35.9806" x2="60.4403" y2="36.0495" gradientUnits="userSpaceOnUse">
<stop stop-color="#C43636"/>
<stop offset="1" stop-color="#B80D0D"/>
</linearGradient>
<linearGradient id="paint30_linear_42_273" x1="42.2221" y1="47.9706" x2="42.3609" y2="47.9611" gradientUnits="userSpaceOnUse">
<stop stop-color="#800000"/>
<stop offset="1" stop-color="#DF5F5F"/>
</linearGradient>
<linearGradient id="paint31_linear_42_273" x1="62.5506" y1="41.3662" x2="62.5723" y2="45.3728" gradientUnits="userSpaceOnUse">
<stop stop-color="#800000"/>
<stop offset="1" stop-color="#DF5F5F"/>
</linearGradient>
<linearGradient id="paint32_linear_42_273" x1="63.9993" y1="40.8756" x2="64.0048" y2="40.9429" gradientUnits="userSpaceOnUse">
<stop stop-color="#C43636"/>
<stop offset="1" stop-color="#B80D0D"/>
</linearGradient>
</defs>
</svg>
